<svg t="1564582445914" class="icon" viewBox="0 0 1399 1024" version="1.1" xmlns="http://www.w3.org/2000/svg" p-id="4636" width="87.4375" height="64" xmlns:xlink="http://www.w3.org/1999/xlink"><defs><style type="text/css"></style></defs><path d="M557.793546 308.547728c0-15.46655 3.077147-30.923776 8.992108-45.209198 5.924285-14.288531 14.67706-27.392827 25.618028-38.330686 10.931643-10.934751 24.035939-19.693742 38.32447-25.611811 14.294748-5.924285 29.751973-8.995216 45.218523-8.995216s30.926884 3.070931 45.209198 8.995216c14.285423 5.918069 27.392827 14.67706 38.333795 25.611811 10.931643 10.93786 19.690634 24.042155 25.608703 38.330686 5.914961 14.285423 8.992108 29.742648 8.992108 45.209198 0 15.469658-3.074039 30.926884-8.992108 45.215415-5.918069 14.285423-14.680168 27.395935-25.608703 38.330686-10.944076 10.940968-24.048372 19.693742-38.333795 25.611811-14.282315 5.911853-29.742648 8.995216-45.209198 8.995216s-30.926884-3.083364-45.218523-8.995216c-14.288531-5.918069-27.392827-14.673952-38.32447-25.611811-10.940968-10.934751-19.693742-24.045264-25.618028-38.330686C560.870693 339.474612 557.793546 324.017387 557.793546 308.547728L557.793546 308.547728zM189.173065 543.610694l0 1.081664L189.173065 543.610694zM675.896943 3.552706c-181.825211 0-329.232996 147.404677-329.232996 329.226779 0 181.815886 329.232996 548.698866 329.232996 548.698866s329.214346-366.88298 329.214346-548.698866C1005.111289 150.954275 857.706612 3.552706 675.896943 3.552706L675.896943 3.552706 675.896943 3.552706zM675.896943 469.951871c-90.915714 0-164.614944-73.69923-164.614944-164.614944 0-90.931255 73.69923-164.608727 164.614944-164.608727 90.925038 0 164.627377 73.677473 164.627377 164.608727C840.524319 396.252641 766.821981 469.951871 675.896943 469.951871L675.896943 469.951871 675.896943 469.951871zM750.547291 821.175591l-20.604454 35.682475c210.744178 3.788932 374.411112 31.893543 374.411112 66.006362 0 36.69265-189.409291 66.438406-423.054904 66.438406-323.827785 0-423.064229-29.745757-423.064229-66.438406 0-33.590636 158.647143-61.347126 364.666812-65.810544l-20.71635-35.878293c-224.507418 7.711517-396.137636 49.896409-396.137636 100.775018 0 56.361526 110.32039 102.049392 470.315534 102.049392 259.745417 0 470.315534-45.684758 470.315534-102.049392C1146.681819 871.068891 975.05471 828.884 750.547291 821.175591L750.547291 821.175591zM750.547291 821.175591" fill="#1050f1" p-id="4637"></path></svg>