<svg version="1.1" id="图层_1" xmlns="http://www.w3.org/2000/svg" xmlns:xlink="http://www.w3.org/1999/xlink" x="0px" y="0px"
	 width="841.891px" height="841.89px" viewBox="0 0 841.891 841.89" enable-background="new 0 0 841.891 841.89"
	 xml:space="preserve">
<defs>
	
	<script>
		<![CDATA[
    window.onload=function (){

 	  var paths=document.getElementsByTagName("path");
 	  for (var i=0;i<paths.length;i++){
 	   paths[i].color=window.getComputedStyle(paths[i],null).fill
 	   if(i==2){
 	   continue;
 	   }
 	   paths[i].onmouseover=function (){
 	     this.style.fill="red";
 	   }
 	   paths[i].onmouseout=function (){
 	      this.style.fill=this.color;
 	   }
 	  }
    }
 	
			]]>
	</script>
</defs>
<g id="图层_x0020_1">
	<g id="_26292160">
		<g>
			<g>
				<path id="_138557656" fill="#C2C1C1" d="M272.21,459.678c-1.726-0.762-3.199-0.863-3.96-1.878
					c-0.355-1.423-0.406-3.606,0.102-4.622c0.406-0.203,1.27-0.405,1.727-0.711c0.051-0.609,0.101-1.218,0.152-1.827
					c0.559-0.559,1.117,0.101,2.133-0.102c0.813-0.457,1.625-0.915,2.438-1.371c1.473-0.102,2.996-0.203,4.519-0.254
					c0.305,0.152,1.117,0.66,1.523,1.523c0,0.304,0,0.609,0,0.965c-0.152,0.254-0.305,0.508-0.406,0.812
					c-0.71,1.016-1.422,1.98-1.98,3.148c-0.102,0.458-0.203,1.016-0.761,1.575c-1.473,0.71-2.945,1.828-4.113,2.538
					C273.125,459.526,272.668,459.577,272.21,459.678z"/>
				<path id="_138559824" fill="#FCE0EC" d="M272.465,459.17c-0.965-0.355-1.93-0.659-2.844-0.965
					c-1.574-1.167-1.067-1.98-1.067-3.3c0.254-1.676-0.051-1.372,1.473-1.727c0.153-0.152,0.356-0.305,0.559-0.457
					c0-0.609,0.051-1.219,0.102-1.777c0.051-0.051,0.102-0.051,0.203-0.051c0.355,0.152,1.016,0.254,1.727,0.152
					c0.813-0.458,1.625-0.914,2.438-1.371c1.321-0.102,2.641-0.203,4.012-0.254c0.355,0.254,1.269,0.609,1.269,1.727
					c-0.406,0.659-0.813,1.371-1.32,1.879c-0.406,1.016-1.066,1.828-1.371,3.198c-1.473,0.915-2.895,1.828-4.316,2.742
					C273.023,459.019,272.719,459.069,272.465,459.17L272.465,459.17z"/>
				<path id="_138559440" fill="#C2C1C1" d="M275.41,448.253c-1.168-0.965-1.118-1.523-1.422-2.336
					c-0.457-0.66-0.863-1.27-1.269-1.879c0-1.269-0.253-1.93,0.863-2.487c0-0.103,0-0.204,0.051-0.306
					c-1.32,0-1.472,0.559-2.285,1.016c-0.559,0-1.066,0-1.574,0c-0.102-0.457-0.153-0.863-0.204-1.27
					c-1.168-0.355-0.863-0.762-1.219-1.117c-0.66,0-0.254,0.66-0.609,1.423c-0.204,0-0.355,0-0.508,0
					c-0.406-0.407-1.371-0.052-1.574,0.151c-2.031,0-3.758-0.457-5.231-0.559c-1.218-0.609-2.234-2.438-2.792-3.147
					c0-0.407,0-0.763,0-1.118c0.305-0.66,0.711-1.319,0.711-1.879c-0.356-0.254-0.711-0.508-1.016-0.711
					c-1.675-0.101-4.773-0.305-5.434-1.421c-0.101-0.254-0.203-0.508-0.305-0.762c-0.101-0.052-0.203-0.102-0.254-0.102
					c-1.219,0-2.234,0.913-2.641,1.929c-0.355,0.305-0.71,0.609-1.015,0.965c-0.609,0-1.219,0-1.828,0
					c-0.204,0.457-1.067,1.22-1.523,1.524c-0.407,0-0.762,0-1.117,0.05c-0.254-0.304-0.508-0.609-0.762-0.863
					c-0.305-0.913-2.132,0.56-2.387,0.609c-0.406-0.05-0.812-0.05-1.168-0.05c-0.863-0.863-1.32-1.219-2.031-1.067
					c-0.457,0.508-0.914,1.017-1.371,1.523c-0.457,0-0.914,0-1.32,0.051c-0.609-0.405-0.964-0.66-1.269-0.66
					c-0.711,0.711-0.508,0.457-0.661,1.372c0.813,1.065,0.863,1.117,0.863,2.894c-0.253,0.762,0.051,1.473,0.356,2.539
					c-0.051,0.305-0.051,0.609-0.051,0.914c-0.152,0.153-0.305,0.355-0.457,0.559c-0.355,0-0.711,0-1.016,0.051
					c-0.863-0.609-1.726-1.219-2.539-1.777c0-0.813,0-1.574,0-2.336c-0.355-0.405-0.609-0.405-0.863-0.457
					c-0.559,0.457-1.523,1.423-2.133,1.727c-0.153,0-0.254,0-0.355,0c-0.407-0.406-0.863-0.508-1.117-0.609
					c-0.559-0.762-0.863-1.27-1.219-1.473c-0.355-0.457-0.711-0.863-1.016-1.27c-3.25-0.203-2.793-1.27-2.793-3.758
					c0.102-0.304,0.203-0.609,0.356-0.913c-0.051-0.355-0.051-0.712-0.051-1.067c-0.609-0.203-1.219-0.405-1.777-0.558
					c-0.102-0.102-0.203-0.203-0.254-0.306c0-0.355,0-0.659,0-0.965c-0.254,0-0.458-1.167-0.458-1.319
					c-0.254-0.509-0.508-1.017-0.71-1.473c-0.305-1.372-0.609-1.473-1.321-1.473c-0.71,0.354-1.371,0.71-2.031,1.117
					c-0.915,0-1.168-0.102-1.473-0.407c0-1.573,0-3.147,0-4.722c0.914-2.691,2.438-3.809,4.824-5.383
					c0.609,0,0.507-2.387,0.507-2.438c0.559-1.269,0.457-2.082,0.508-3.148c0.102-0.813,0.153-1.016,0.508-1.372
					c0-0.508,0.05-1.015,0.101-1.473c-0.66-1.371-2.031-1.727-2.387-2.488c0-0.609,0-1.219,0-1.777
					c-0.101-0.051-0.152-0.051-0.203-0.051c-0.508-1.016-1.219-1.777-1.676-2.234c-0.355,0-0.66,0-0.965,0
					c-0.254,0.254-0.508,0.508-0.762,0.762c0,0.711,0.05,2.082-0.66,2.793c-0.406,0-0.813,0-1.168,0
					c-1.372-0.66-1.93-0.863-1.93-2.032c-1.219-0.609-2.234-0.812-2.844-1.066c-0.203-0.254-0.406-0.508-0.559-0.71
					c-0.253,0-0.507,0-0.711,0c-1.117,0.913-2.387,1.675-3.555,2.386c-1.625,0.306-1.523,0.813-2.387,1.879
					c-1.929,0-1.878,0.406-3.046,1.828c-0.711,0.457-1.625,0.558-2.336,0.71c-0.051,0.102-0.102,0.204-0.102,0.305
					c-1.676-0.102-3.301-0.204-4.925-0.254c-1.118,0.254-2.489,0.203-2.996-0.559c-0.051-0.304-0.051-0.609-0.051-0.913
					c0.305-0.711,0.609-1.423,0.965-2.134c-0.863-0.304-1.575-0.964-1.879-1.219c-0.152-0.508-0.305-0.964-0.406-1.421
					c-1.117,0-1.777-0.102-2.539-0.356c-0.305-0.355-0.558-0.711-0.812-1.015c-0.66-0.254-1.27-0.508-1.879-0.763
					c-1.421-0.964-2.589-1.523-3.503-0.05c-0.508,0.254-0.965,0.508-1.422,0.762c-0.203,0.152-0.406,0.355-0.559,0.559
					c-0.253,0.863-0.507,1.726-0.761,2.64c-0.407,0-0.762,0-1.118,0c-1.676-0.558-1.32-1.776-1.32-2.742
					c0.203-0.559,0.406-1.117,0.609-1.625c-0.204-0.305-0.407-0.559-0.661-0.609c-1.625,0.101-3.148,0.457-4.316,1.065
					c-0.609,0.61-2.133-0.05-2.286-0.152c-0.66-0.762-1.269-1.473-1.878-2.184c-1.27,0-2.539,0-3.808,0.052
					c-0.204-0.102-0.356-0.204-0.508-0.306c-0.762-1.065-0.813-1.98-1.219-2.539c-0.863-0.153-1.269-0.66-1.371-0.964
					c-0.406-0.254-0.812-0.457-1.219-0.661c-0.305-0.304-1.015-0.152-1.015-0.152c-0.508-0.355-0.965-0.711-1.422-1.015
					c-1.422-1.422-0.864-2.996-1.32-4.164c-0.711,0-1.422,0.05-2.133,0.102c-1.371-0.458-1.574-0.965-1.726-1.727
					c-0.203-0.355-0.406-0.661-0.609-0.965c-0.965-0.711-1.93-1.422-2.895-2.133c-0.559-0.914-1.117-1.828-1.625-2.742
					c-1.168,0-1.828,0.508-2.539,0.965c-0.761,0-1.523,0-2.285,0c-0.914-0.609-1.27-1.219-1.575-1.625
					c-0.152-0.305-0.253-0.609-0.355-0.915c-0.152-1.727-1.117-2.691-1.675-3.707c-0.863-0.559-1.727-1.067-2.59-1.575
					c-1.168-0.355-2.184-0.761-2.742-1.167c-0.508-1.271,0.102-2.134,0.863-2.895c0.051-1.219,0.152-2.387,0.253-3.554
					c-0.812-2.184-1.015-2.438,1.321-2.438c0.559,0.406,0.66,0.457,1.219,1.574c0.203,0.051,0.406,0.102,0.609,0.203
					c0.863-0.863,0.457-2.945,0.457-3.808c-0.356-1.066-0.711-2.133-1.066-3.199c0-2.234-0.102-2.336,1.117-3.555
					c0.102-0.254,0.254-0.508,0.406-0.711c0-0.152,0-0.254,0-0.355c-0.609-0.406-1.168-0.813-1.727-1.168
					c-0.355,0-0.457-0.406-0.559-0.609c-0.914-0.762-0.507-2.184-0.507-2.895c0.051-0.203,0.152-0.355,0.254-0.508
					c-0.152-1.93-1.422-1.473-2.437-1.625c-1.321-0.507-2.184-2.234-2.489-3.046c-2.488-0.661-2.031-0.711-2.031-2.844
					c0.203-0.559,0.406-1.066,0.609-1.574c-0.254-1.523-1.524-2.285-2.235-2.895c-0.71-0.355-1.371-0.711-2.031-1.066
					c-0.101-0.152-0.203-0.254-0.254-0.355c0-2.539-0.152-1.98,1.777-2.945c0.254-0.152,0.508-0.305,0.762-0.457
					c0-1.828,0.406-4.316-0.254-5.636c-0.813-0.559-1.878-0.406-2.336-0.203c-0.254,0.914-1.117,0.152-1.219,0
					c-0.203-0.914-0.305-1.676-0.254-2.438c0.407-0.203,0.813-0.355,1.27-0.508c0-1.016-0.661-1.117-0.863-1.473
					c0-1.523,0-0.914,1.371-1.574c0.559-0.559,0.863-1.219,1.219-1.828c0.407-0.254,0.813-0.508,1.27-0.711
					c0.355-0.152,0.71-0.254,1.066-0.355c0.762,0,4.164,0,5.18-1.016c1.218,0,1.522-0.71,1.777,1.066
					c0.457,1.117,0.559,1.523,2.336,1.32c0.66-0.66,1.218-1.777,1.878-2.285c0.762,0,1.473,0.254,2.54,0
					c0.559-1.117,1.523-1.066,2.742-1.168c0.66,0.204,1.32,0.457,2.031,0.711c0.305-0.457,3.402-0.609,4.672-0.965
					c0.609-0.355,1.218-0.71,1.878-1.015c0.356-1.422,0.407-1.575,1.575-2.336c0.355-0.914,0.761-1.828,1.168-2.691
					c0.507-0.305,1.015-0.609,1.523-0.863c0.203-0.559,0.406-1.117,0.609-1.625c0.05-0.762,0.101-1.523,0.152-2.234
					c-0.152-0.406-0.254-0.813-0.355-1.168c0-0.406,0-0.813,0-1.168c0.355-0.66,0.355-1.676,0.355-2.285
					c-0.761-0.761-0.457-1.016-0.507-1.473c0.253-0.253,3.199-0.101,4.215-0.101c1.168,0.152,2.234,0.558,3.757,0.71
					c0.559,0.254,1.168,0.508,1.777,0.762c0.152-0.203,0.305-0.355,0.457-0.508c-0.101-0.203-0.203-0.355-0.305-0.507
					c0-0.559,0-1.118,0-1.676c0.508-1.066,1.473-2.082,2.184-2.945c0.254-1.625,0.813-1.93,1.727-3.047
					c0.558-1.371,0.457-1.32,2.031-1.32c0.762,0.355,2.082,1.523,3.301,1.93c0.609,0,1.524-0.051,2.285,0.711
					c1.016,0,2.793,0.102,3.199-1.168c0-0.406,0-0.813,0-1.219c-0.508-2.59-0.05-2.387,1.219-4.063
					c1.27-0.609,2.335-0.762,4.062-0.914c0.153-0.101,0.305-0.152,0.458-0.203c0.152-0.457,0.305-0.914,0.507-1.371
					c0.305-0.304,0.609-0.609,0.914-0.914c0.863-0.051,1.727-0.051,2.641-0.051c0.508,0.406,0.661,1.066,0.762,2.133
					c0.254,0.863,1.27,2.183,1.98,3.503c0.508,0.762,1.829,0.914,3.046,1.32c0.609,0.457,1.219,0.914,1.829,1.371
					c0.203,0.355,0.406,0.762,0.609,1.168c0.051,0.813,0.152,1.625,0.253,2.488c0.051,0,0.102,0,0.153,0.05
					c0.254,0.559,0.559,1.168,0.863,1.777c0.101,0.915,0.406,2.895-0.102,4.266c-0.66,0.508-1.32,1.066-1.929,1.625
					c-0.051,0.305-0.102,0.609-0.102,0.914c0,0.152,0.051,1.168,0.559,1.93c0.558,0.406,1.117,0.813,1.726,1.219
					c0.609,0.102,1.219,0.203,1.879,0.355c0.609,0.305,1.27,0.609,1.929,0.914c1.27,0.102,2.59,0.253,3.91,0.406
					c0.305,0.203,0.609,0.406,0.965,0.66c1.575,1.726,2.945,3.25,5.484,4.012c0.356,0.355,0.762,0.711,1.168,1.117
					c0.204,0.813,0.407,1.625,0.661,2.488c0.406,1.117,1.879,1.523,1.371,3.555c0.153,0.305,0.254,1.016,1.118,1.574
					c1.828,0.203,3.605,0.355,5.738,1.168c1.219,0.254,2.438,0.559,3.708,0.863c2.792,0,5.585,0,8.378,0.051
					c0.762,0.254,2.387,0.457,3.403,0.965c0.812,0.66,1.625,1.371,2.488,2.082c0.305,0.152,0.609,0.305,0.914,0.457
					c0.813,0.102,1.675,0.254,2.539,0.406c0.356,0.254,0.711,0.507,1.118,0.762c1.066,0.305,2.132,0.66,3.199,1.016
					c0.66,0.305,2.031,2.589,3.148,0.863c0.356-0.254,0.711-0.508,1.066-0.711c0.762-0.254,1.574-0.762,2.234-1.32
					c0.711-0.254,1.422-0.508,2.184-0.762c0.964-0.711,2.539-0.914,3.555-1.676c0.253-0.152,0.507-0.254,0.812-0.355
					c1.422-0.965,3.351-0.406,5.433,0c0.711,0,1.473,0,2.235,0c0.457-0.457,1.523-0.559,2.234-0.762
					c0.407-0.254,0.813-0.508,1.27-0.711c1.117-1.219,1.878-2.793,3.402-3.555c0.457-0.406,1.625-1.777,2.184-1.777
					c0-0.051,0-0.102,0-0.152c0.457-0.305,0.914-0.609,1.422-0.863c0-0.254,0-0.508,0.051-0.71
					c-0.254-0.204-0.508-0.407-0.762-0.559c-1.675-1.93-1.32-2.996-0.863-5.027c0.356-0.711,0.863-1.117,1.118-1.574
					c0.152-0.102,0.305-0.204,0.457-0.305c0.406,0.051,0.863,0.152,1.32,0.254c1.117,1.117,2.59,2.184,4.621,1.32
					c0.558-0.711,0.965-1.371,1.523-1.625c0-0.762,1.523-1.93,2.132-2.438c0.711,0,1.423,0.051,2.184,0.102
					c0.102-0.152,0.203-0.305,0.305-0.406c1.168-0.355,1.98-0.863,2.945-1.828c0.355-1.777,0.66-2.844,2.335-3.504
					c0.559-0.152,1.117-0.254,1.727-0.355c0.254-0.305,0.559-0.609,0.863-0.863c1.067-0.711,1.473-1.066,2.641-1.523
					c1.574,0.051,3.149,0.152,4.723,0.253c0.203-0.101,0.457-0.203,0.71-0.305c0.762-1.117,0.153-1.98-0.305-2.589
					c-1.168-0.863-2.336-1.727-3.504-2.539c-0.863-1.32-1.016-1.676-2.234-1.523c-0.203,0.254-0.406,0.559-0.609,0.863
					c-0.508-0.051-1.016-0.051-1.473-0.051c-0.05,0.406-0.05,0.813-0.05,1.27c-0.508,1.574-3.352,0-3.758-0.203
					c-1.269,0-2.031,0.305-2.641,1.168c-0.406,0-0.812,0-1.219,0.051c-1.675-0.559-1.472-1.828-1.472-2.641
					c0.457-0.457,0.964-0.762,1.371-1.32c0-1.219,0-1.828,0.152-2.691c0.255-0.66,0.56-1.27,0.863-1.879
					c0-1.727-0.05-2.285,0.711-3.402c0.559-0.05,1.117-0.102,1.675-0.102c1.422,0.204,3.758,0.66,5.078-1.066
					c0.407-0.305,0.813-0.609,1.27-0.914c0.253-0.305,0.507-0.61,0.761-0.914c0-1.676,0.051-3.2,0.305-4.469
					c0.458-1.117,1.321-2.031,1.625-2.996c0-1.118,0.203-1.727,0.863-2.387c-0.051-0.508-0.051-1.016-0.051-1.473
					c-0.457-0.508-0.863-1.016-1.27-1.523c-0.609-0.152-0.71-0.254-0.965-0.508c0-2.132,0.457-2.589,2.234-3.402
					c1.219,0,2.387-1.117,3.859-1.32c0.762-0.508,1.523-1.016,2.336-1.473c0.406-0.203,0.863-0.355,1.32-0.508c0.66,0,1.32,0,1.98,0
					c0.355,0.102,1.523,0.355,2.133,0.965c1.269,0,2.285-0.305,3.91-0.203c0.458,0.254,0.965,0.508,1.473,0.762
					c1.016,1.016,2.286,2.234,3.301,4.063c0.711,0.457,1.93,2.132,2.133,3.605c0.813,0.66,1.777,1.473,2.843,2.742
					c0.458,0.914-0.609,1.473,1.016,2.285c0.355,0.406,0.761,0.813,1.168,1.219c0,0.457,0,0.965,0.305,1.777
					c0.863,0.051,1.625,0.102,2.438-0.102c0.559,0,1.117,0,1.727,0c0.457,0.305,0.71,0.508,1.625,0.66c0-0.102,0-0.152,0-0.203
					c0.458-0.203,0.965-0.203,1.777-0.203c0.355,0.406,0.965,1.066,1.93,1.777c2.64,0,2.894,1.066,3.707,4.012
					c0.457,0.507,0.914,1.066,1.371,1.625c0.153,0,0.305,0,0.458,0.05c0.965-0.355,3.605-0.813,4.418-1.625
					c0.914-1.473,1.523-2.336,2.894-3.199c0.813-1.219,2.285-2.234,3.25-3.199c0.305,0,0.66-0.457,0.761-0.559
					c0.407,0,1.016,0,1.829,0.356c0.152,0.355,0,1.371-0.152,2.031c0,0.508,0,1.016,0.051,1.575
					c0.457,0.457,1.218,1.016,1.472,2.132c-0.051,0.813-0.102,1.676-0.152,2.539c-0.203,0.406-0.356,0.813-0.508,1.27
					c-0.507,0.508-0.458,1.321-0.203,2.336c-0.051,1.219-0.051,2.438-0.051,3.707c-0.152,0.762-0.305,1.574-0.457,2.387
					c0,0.508,0.051,1.066,0.102,1.625c-0.254,0.254-0.458,0.508-0.66,0.813c-1.015,0.66-2.641,0.305-3.199,0.05
					c-0.355-0.05-0.711-0.05-1.066-0.05c-0.153,0.254-0.305,0.508-0.407,0.813c-1.32,1.32-2.894,1.015-0.761,3.453
					c0.152,1.167,0.863,2.894,1.675,4.417c0.102,0.711,0.152,1.574,0.71,2.691c0,0.508,0.305,2.387-0.457,2.895
					c-0.203,0.406-0.355,0.812-0.507,1.219c-0.102,0.559-0.204,1.168-0.305,1.777c-0.153,0.051-0.305,0.152-0.458,0.254
					c-0.71,0-0.813-0.102-1.168-0.508c-0.609,0.305-1.066,0.102-1.371,0c-0.051-0.762-0.102-1.523-0.102-2.285
					c-0.813-1.625-1.473,1.269-1.574,1.777c-0.762,1.117-1.168,2.437-2.133,3.402c-0.762,0.406-1.676,0.457-2.387,0.507
					c-0.102,0.254-0.203,0.406-0.203,1.016c0.05,0.102,0.101,0.203,0.203,0.305c0.559,0.254,1.168,0.559,1.015,1.828
					c-0.406,0.508-0.863,0.965-1.422,1.117c-0.914-0.051-1.777-0.051-2.64-0.051c-0.813-0.305-1.727-1.219-2.285-0.66
					c-0.66,0.863-1.016,2.285-1.473,3.504c-0.355,0.457-0.66,0.965-0.965,1.473c-0.355,0.355-0.71,0.711-1.066,1.066
					c-0.761,0.457-1.98,1.066-2.285,1.726c-0.711,0.458-1.574,1.575-2.184,2.234c-0.051,0.609-0.102,1.219-0.102,1.829
					c-0.66,0.305-1.32,0.609-1.98,0.914c-2.691,0.559-3.656,1.321-5.383,3.25c-0.253,0.355-0.457,0.762-0.659,1.168
					c-0.102,0.813-0.356,1.676-0.762,2.488c-0.71,0.457-3.148,0.711-3.504,0.355c0-1.523,0.762-1.625,1.625-2.641
					c0.101-0.254,0.203-0.508,0.305-0.711c-1.523-0.762-1.422-1.574-1.067-2.793c0.559-0.762,1.117-1.473,1.676-2.183
					c0.051-0.661,0.102-1.32,0.152-1.93c-0.66-0.914-1.625-1.676-1.929-1.828c-0.559,0.102-1.118,0.203-1.676,0.305
					c-0.71,0.457-1.574,1.625-2.031,2.183c-0.507,0.711-1.219,2.184-1.98,2.945c-1.473,0.864-2.031,2.133-3.098,3.555
					c-0.101,0.254-0.152,0.508-0.203,0.762c-0.305,0.254-0.609,0.508-0.863,0.813c-0.609,0.305-1.168,0.609-1.727,0.965
					c-1.574,0.406-2.641,0.508-3.961,1.27c-0.609,1.27,0.204,2.336,0.914,3.758c0.355,0.101,0.559,1.066,0.66,1.878
					c0.051,0.051,0.102,0.152,0.152,0.254c0.152,0,0.305,0,0.508,0c0.558-1.472,0.355-1.066,2.234-1.066
					c0.203-0.204,0.559-0.152,1.168-0.152c0.051,0.355,0.406,0.609,0.812,1.32c0,0.66,0,1.371,0,2.082
					c0.407,0.507,1.777,1.167,2.945,1.371c0.407-0.761,0.813-1.523,1.219-2.285c1.625-1.676,1.98-2.742,4.773-2.183
					c0.609,0.254,1.219,0.507,1.828,0.762c1.524-0.051,3.098-0.102,4.672-0.102c0.203,0.102,0.406,0.254,0.66,0.407
					c-0.102,0.304-0.204,0.609-0.254,0.964c0,0.508,0.203,1.32-0.559,1.879c-0.507,0-1.015,0-1.523,0.051
					c-0.508,0.254-1.016,0.508-1.523,0.762c-0.914,0.762-2.59,1.625-2.894,2.895c-0.355,0.355-0.914,0.559-1.219,0.711
					c-0.508,0.508-1.219,0.711-1.625,0.863c-0.101,0.559-0.152,1.117-0.203,1.727c-0.507,0.711-1.421,1.574-1.777,2.285
					c-0.051,0.559-0.102,1.117-0.153,1.727c-0.203,0.305-0.406,0.609-0.609,0.965c-0.051,0.305-0.051,0.609-0.051,0.914
					c0.203,0.203,1.269,0.964,2.336,1.32c0.203,0.253,1.168,1.117,2.133,1.32c0.761,0.507,1.878,2.996,2.539,4.316
					c0.508,0.761,1.015,1.523,1.523,2.335c0,0.863,0.457,2.793,1.93,2.997c1.117,0.66,2.234,1.371,3.352,2.082
					c0.152,0.356,0.203,0.559,0.203,1.168c-0.253,0.152-0.457,0.305-0.659,0.508c-0.711-0.05-1.423-0.102-2.133-0.102
					c0,0.051,0.051,0.152,0.101,0.254c0.458,0.101,1.676,0.051,1.676,1.27c-0.102,0.152-0.204,0.355-0.254,0.558
					c0.559,0.254,1.269,0.457,2.132,1.168c-0.051,0.406-0.051,0.812-0.051,1.269c-0.304,0.305-0.559,0.609-0.813,0.915
					c-1.625,0.66-2.387,1.98-3.909,3.046c-0.407,0.101-0.762,0.203-1.118,0.355c-0.05,0.102-0.05,0.204-0.05,0.355
					c0.203,0.204,0.608,0.661,1.422,0.458c1.066-0.761,0.914-1.117,2.488-1.117c1.167,0.813,2.133,0.914,3.961,1.015
					c0.66,0.661-1.422,2.032-1.93,2.336c-0.203,0.204-0.66,0.306-0.457,0.711c0.254-0.05,0.508-0.05,0.761-0.05
					c0.153-0.254,0.356-0.508,0.559-0.711c0.153,0,0.355,0,0.559,0.05c0.204,0.407,0.355,0.711,0.355,1.727
					c-0.152,0.153-0.305,0.355-0.457,0.559c-0.407,0.102-1.625,0.102-1.625,0.711c0.305,0.152,0.661,0.355,1.016,0.558
					c-0.051,0.915-0.102,1.828-0.153,2.742c0.102,0.203,0.204,0.407,0.355,0.661c-0.051,0.507-0.101,1.625-0.71,2.132
					c-0.355,0-0.66,0-0.965,0c-0.102-0.202-0.203-0.406-0.254-0.558c-2.286,2.183-2.235,2.284-2.336,5.585
					c-0.102,0.508-1.117,1.473-1.574,1.93c-0.051,0.559-0.102,1.168-0.152,1.777c-1.067,0.71-1.777,0-2.691,0.457
					c0.253,0.204,0.507,0.407,0.812,0.66c0.051,0.102,0.102,0.255,0.203,0.407c0.355,0.152,0.762,0.304,1.168,0.458
					c0,0.101,0,0.253,0,0.406c-1.015,0.66-1.117,0.406-1.117,1.726c-0.355,0.458-0.355,0.813-0.355,1.777
					c0.153,0.457,0.711,0.508,0.711,1.574c-0.66,0-1.27,0-1.879,0.052c0.051,0.203,0.051,0.508,0.355,0.66c0,0.102,0,0.204,0,0.355
					c-0.507,0.355-1.015,0.711-1.473,1.067c0,0.558-0.253,1.473-0.812,2.183c-0.254,0.203-0.508,0.406-0.762,0.66
					c-0.559,0-1.117,0.05-1.625,0.102c0,0.304,0.253,0.457,0.507,0.609c0,0.202,0,0.406,0,0.66
					c-0.254,0.254-0.914,0.355-0.914,0.355c-1.015,0.659-1.726,1.473-2.488,2.488c-0.051,0.253-0.102,0.507-0.153,0.762
					c-1.219,1.219-2.031,1.473-3.503,1.827c-0.508,0.407-1.015,0.813-1.473,1.271c0,0.051,0,0.152,0,0.254
					c0.153,0.152,0.458,0.812,0.051,1.421c-0.507,0.204-0.965,0.407-1.422,0.661c-1.421,1.016-2.793,1.473-3.961,2.64
					c-1.066,0-1.32-0.508-1.675-0.508c-0.204,0.254-0.407,0.508-0.609,0.762c-0.407,0-0.813,0-1.168,0
					c-0.204-0.202-0.407-0.355-0.609-0.508c0,0.204,0,1.017-0.508,1.321c-1.168,0.254-0.762,0.05-1.118,0.965
					c-0.559,0.558-1.777,0-1.878-0.102c-0.102-0.204-0.153-0.406-0.204-0.609c-0.101-0.052-0.203-0.052-0.254-0.052
					c-0.507-0.406-1.015-0.812-1.473-1.218c-0.152,0.354-0.253,0.762-0.355,1.167c-0.507,0.762-0.914,1.371-1.625,2.082
					c-0.965,0.355-1.016,0.914-1.727,1.423c-1.016,0-1.372,0.558-1.879,1.015c-0.914,0-1.523-0.051-1.878,0.204
					c-0.508,1.065-1.474,1.015-2.235,0.456c-1.523,0.355-2.589,1.066-3.91,1.473c-2.082,0.102-2.386,0.052-2.792,2.031
					c-0.407,0.406-1.016,0.355-1.219,0.813c0.559,0.66,1.117,1.372,1.726,2.082c0,0.355,0,0.711,0,1.066
					C277.086,448.152,276.222,448.203,275.41,448.253L275.41,448.253z"/>
				<path id="_138562592" fill="#FBE0D5" d="M275.766,447.746c-1.117-0.71-1.016-1.421-1.27-2.082
					c-0.457-0.66-0.863-1.27-1.269-1.879c0-1.574-0.051-1.319,0.863-1.98c0.254-2.335,0.457-2.589,2.285-4.012
					c0.914-1.065,1.675-1.827,2.843-2.64c0.965-1.219,1.777-2.133,2.895-3.199c0.914-0.559,1.117-1.27,1.371-2.184
					c0-2.285,0.609-1.777,1.676-3.199c-0.051-0.914-0.101-1.828-0.152-2.742c0.761-0.762,0.812-1.473,0.914-2.234
					c0.203-0.406,0.457-0.812,0.71-1.167c0.305,0,0.609,0,0.965,0c0.508,0.507,1.066,1.015,1.625,1.523c0.305,0,0.609,0,0.965,0
					c0.406-0.406,0.355-1.523,0.355-1.727c-0.305-0.355-0.609-0.71-0.914-1.066c0.051-0.051,0.153-0.101,0.254-0.101
					c1.523,0,3.098,0,4.671,0c0.559,0.253,2.286,0.202,3.098-0.407c0.152,0,0.355,0,0.558,0c0,0.305,0,0.609,0,0.965
					c-0.66,0.762-1.32,1.524-1.98,2.336c0.051,1.168,0.355,1.422,2.285,1.422c0.915-0.406,1.829-0.813,2.743-1.219
					c0.305,0,0.608,0,0.913,0c0.153,0.152,0.356,0.355,0.56,0.559c1.675,0,2.488-2.133,4.773-1.371
					c0.457,0.559,0.913,1.117,1.421,1.727c0.71,0.965,1.422,1.93,2.133,2.895c0,0.254,0,0.508,0,0.813
					c-0.914,0-0.965,0.05-1.523,0.304c-0.558,0.813-2.082,1.066-1.168,2.438c0,0.05,0,0.152,0,0.254
					c-1.523,0.659-3.148,1.878-4.52,2.539c-0.254,0.254-0.507,0.508-0.762,0.762c-0.508,0-0.762-0.203-0.863-0.457
					c-0.305,0-0.609,0-0.914,0c-0.203,0.254-0.406,0.507-0.559,0.762c-0.254,0-0.457,0-0.66,0c-0.609-0.914-1.016-0.559-1.473-0.508
					c0,0.355,0,0.762,0,1.168c-0.762,0.762-1.168-0.052-1.523,1.371c-1.117,0-0.965-0.457-1.321-0.965
					c-0.102-0.051-0.203-0.051-0.254-0.051c-0.457-0.407-0.863-0.813-1.27-1.168c-0.254,0-0.507,0-0.761,0
					c-0.356,0.559-0.356,0.66-0.559,1.37c-0.355,0.509-0.711,1.017-1.016,1.524c-1.117,0.558-1.168,0.609-1.777,1.574
					c-0.406,0.051-0.761,0.152-1.117,0.254c-0.355,0.305-0.71,0.609-1.066,0.914c-1.27,0-1.523,0.051-2.133,0.406
					c-0.102,0.203-0.203,0.406-0.305,0.608c-0.203,0-0.406,0-0.559,0c-1.219-0.608-1.32-0.304-2.184,0.102
					c-0.964,0.306-1.929,0.661-2.843,1.017c-1.473,0.051-2.031,0.202-2.945,1.116c-0.051,0.356-0.102,0.763-0.102,1.168
					c-1.066,0.407-1.168,0.407-1.168,1.575c0.356,0.253,1.676,1.168,1.676,2.284C276.832,447.593,276.121,447.695,275.766,447.746
					L275.766,447.746z"/>
				<path id="_138550296" fill="#FCE0EC" d="M232.248,443.683c-0.813-0.812-1.625-1.32-2.336-1.625
					c0.102-1.269,0.204-1.878-0.254-2.641c-0.152-0.152-0.305-0.305-0.457-0.406c-1.27,0-1.98,0.609-2.59,1.524
					c-0.458-0.102-0.914-0.203-1.372-0.306c-0.507-0.913-0.812-1.269-1.269-1.574c-1.32-1.828-1.118-1.371-2.945-1.473
					c-0.863-0.863-0.609-2.132-0.609-2.792c0.355-1.066,0.559-2.082,0.051-2.743c-2.032-0.659-1.829-0.405-1.829-1.624
					c-0.203-0.559-0.355-1.117-0.508-1.625c-0.203-0.305-0.355-0.559-0.508-0.813c-0.457-1.879-0.761-2.031-2.184-2.031
					c-0.812,0.406-1.878,1.117-2.539,1.117c-0.051-0.051-0.101-0.102-0.152-0.152c-0.051-1.422-0.051-2.844-0.051-4.215
					c0.203-0.559,0.457-1.117,0.71-1.676c1.118-1.421,1.727-1.878,3.352-2.996c0.355-0.355,0.711-0.711,1.117-1.066
					c0.051-0.711,0.102-1.421,0.152-2.082c0.152-0.304,0.305-0.609,0.457-0.863c0-1.32-0.101-2.996,0.507-3.605
					c0.153-1.067,0.204-2.082-0.203-2.742c-0.71-0.609-1.371-1.218-2.031-1.777c0-0.508,0-1.015,0-1.523
					c0.609,0,1.219-0.153,1.98-0.508c0.508-1.625-0.355-3.098-0.355-4.215c0.507-0.406,0.863-1.066,1.726-0.203
					c0.508,1.066,1.168,2.234,1.422,3.961c0.457,0.457,0.305,0.304,1.219,0.457c0.559-0.812,0.457-2.133,0.457-2.691
					c0.204-0.203,0.407-0.355,0.61-0.507c0.406,0.558,0.711,1.421,1.066,2.589c0.406,0.661,0.914,1.625,1.93,2.641
					c0.609,0.102,1.219,0.204,1.879,0.305c0.559,1.066,1.117,2.183,1.727,3.3c0.558,0.763,1.168,1.524,1.777,2.286
					c0,0.253,0,0.507,0.051,0.813c-0.66,0.863-0.711,0.608-0.711,2.082c0.661,0.812,0.914,1.472,2.438,1.878
					c0.305,0.203,0.558,0.558,1.523,0.863c0.406-0.051,0.863-0.102,1.32-0.152c1.168-0.508,2.336-1.016,3.555-1.524
					c0.66-1.065,0.609-1.727,0.609-2.64c-0.458-0.965-0.965-1.067-1.371-1.422c0-1.167-0.152-1.269,0.305-1.878
					c0.964-0.458,1.98-1.117,2.691-2.184c0-0.457,0-0.863,0.051-1.269c-0.355-1.067-0.609-1.321-1.015-1.727
					c-0.051-0.153-0.051-0.254-0.051-0.355c0.254-0.052,0.507-0.102,0.761-0.153c1.473-1.473-0.051-2.235,2.844-1.929
					c0.305,0.913,0.66,1.878,1.015,2.843c0.355,0.406,0.559,0.761,1.321,1.321c0.559,0,1.117,0,1.726,0
					c0.508-0.407,1.066-0.762,1.625-1.117c0.051,0.152,0.152,0.304,0.253,0.456c0,0.711,0.051,2.387-0.761,3.2
					c-0.609,0.153-0.761,0.254-1.321,0.254c-0.558-0.305-1.066-0.609-1.574-0.863c-1.93,0-2.488,0.153-3.808,1.27
					c-0.204,0.304-0.355,0.609-0.508,0.914c0,0.609-0.254,1.117,0.204,2.082c0,0.559,0.71,2.032,1.929,1.219
					c1.168-0.203,2.031-0.711,2.031,1.27c-0.254,0.762-0.457,1.524-0.661,2.285c-1.269,1.625-0.71,2.438,1.474,3.199
					c-0.051,0.457-0.051,0.915-0.051,1.37c-0.153,0.61-0.813,2.082-0.153,3.099c0.458,0.559,0.965,1.117,1.473,1.675
					c1.066,0.254,2.133,0.56,3.25,0.863c0.355,0.204,0.457,0.458,1.117,0.712c0.407,0,0.813,0.051,1.27,0.102
					c0.051,0.305,0.152,0.659,0.253,1.015c-0.203,0.254-0.355,0.56-0.507,0.863c-0.711,0.509-1.371,0.813-1.879,1.017
					c-1.878,0-2.996,0.66-4.265,1.625c-0.253,0.457-0.558,1.219-1.168,1.625c-0.66,0-1.27,0-1.879,0.051
					c-0.508,0.456-1.269,1.727-2.234,1.523c-1.016-1.879-2.031-1.067-2.996-0.355c-1.371,0.457-1.727-0.508-2.285-0.863
					c-1.574-0.508-1.93,0.202-2.539,1.168c-0.711,0.71-1.829-0.153-2.132-0.407c-0.254,0-0.508,0-0.711,0
					c-0.965,0.863-0.812,0.661-0.965,2.185c0.508,0.863,1.168,1.37,0.711,2.843c0,0.762,0.356,1.625,0.508,2.945
					C232.654,443.48,232.502,443.633,232.248,443.683L232.248,443.683z"/>
				<path id="_138547672" fill="#D8ECE0" d="M270.282,441.804c0-0.305,0-0.609,0-0.863c-0.254,0-0.356-0.305-0.458-0.457
					c-0.203-0.051-0.406-0.102-0.559-0.102c-0.355-1.219-0.965-1.168-1.574-0.913c-0.101,0.405-0.203,0.812-0.305,1.218
					c-1.117,0.051-2.234,0.152-3.3,0.254c-0.711-0.152-1.372-0.305-2.031-0.457c-0.559-0.102-1.118-0.151-1.676-0.203
					c-0.457-0.508-0.863-0.965-1.269-1.421c-0.204-0.306-0.355-0.609-0.508-0.915c-0.101,0-0.152,0-0.203,0
					c-0.407-1.219-0.051-1.574,0.406-2.285c0-0.457,0-0.863,0-1.27c-0.406-0.254-0.813-0.508-1.168-0.762
					c-0.051-0.102-0.051-0.203-0.051-0.254c-1.625,0-2.945-0.151-4.012-0.305c-0.356-0.152-0.711-0.305-1.066-0.456
					c-0.152-0.407-0.305-0.813-0.457-1.219c0.457-0.052,0.965-0.103,1.473-0.103c0.457-0.151,1.269-0.761,1.776-1.219
					c0.661-1.117,0.609-1.878,0.051-2.589c-0.457-0.052-0.914-0.103-1.32-0.103c-1.574-1.117-3.402-1.269-4.57-1.828
					c-0.609-0.71-0.914-1.219-0.914-1.522c1.016-1.371,0.914-1.828,2.945-1.828c0.457,0.151,0.914,0.305,1.422,0.508
					c0.457,0.406,0.914,0.813,1.371,1.219c0.762,0.151,1.422,0.253,2.539,0c1.118-0.813,2.133-2.387,3.25-3.352
					c0-0.355,0-0.711,0.051-1.066c0.355-0.051,0.761-0.102,1.167-0.102c0.153,0.204,0.305,0.407,0.458,0.66
					c0.609,0.203,1.269,0.864,2.437,1.219c0.305,0,0.609,0,0.914,0c0.66-0.253,1.321-0.457,2.031-0.66
					c0.863-0.863,1.473-1.32,2.59-1.776c0.152-0.204,0.254-0.407,0.559-0.56c0.812-1.219,1.625-1.522,3.097-1.676
					c0.558-0.05,1.168-0.05,1.777-0.05c1.472-0.965,1.879-1.777,3.961-1.777c0.305,0.559,0.66,1.168,1.015,1.777
					c0.305,0.254,0.609,0.507,0.914,0.812c-0.507,0.914-1.219,1.727-1.625,2.792c-0.051,0.458-0.051,0.915-0.051,1.372
					c0.152,0.152,0.965,0.152,1.625,0.152c0.153,0.457,0.305,0.913,0.458,1.421c0.152,0.204,0.305,0.407,0.457,0.609
					c0.66-0.101,1.372-0.202,2.082-0.254c0.458,0.609,0.711,1.574,0.711,2.845c-0.254,0.305-0.508,0.66-1.118,0.964
					c0,0.204-0.254,0.306-0.355,0.355c-0.102,0.711-0.204,1.473-0.305,2.234c-0.204,0.407-0.407,0.813-0.559,1.271
					c-0.407,0.254-0.914,0.456-0.914,0.863c-1.27,0.253-1.981,2.538-3.098,3.097c0,0.204-0.71,0.609-0.863,0.66
					c-0.457,0.457-0.914,0.914-1.32,1.422c-0.051,0.051-0.051,0.152-0.051,0.254c-0.102,0-0.203,0-0.254,0c0,0.051,0,0.152,0,0.254
					c-0.711,0-1.27,0.914-1.574,1.27c-0.254,0.559-0.508,1.117-0.711,1.676c-1.269,0.254-1.675,0.508-2.488,1.117
					C270.789,441.753,270.535,441.753,270.282,441.804L270.282,441.804z"/>
				<path id="_138555320" fill="#C2C1C1" d="M329.593,434.797c-0.559-0.813-1.117-1.574-1.625-2.336
					c-1.371-0.457-1.219-1.169-1.574-1.88c-0.254-0.354-0.508-0.71-0.762-1.016c0-1.522,0.508-3.047,0.254-4.062
					c0-1.98,0.051-2.082,1.167-3.352c0.102-0.609,0.254-1.219,0.407-1.828c0.305-0.813,0.66-1.625,1.016-2.387
					c1.117-1.473,1.676-2.03,3.046-3.046c0.661,0,1.321,0,2.031,0.051c0.051,0.05,0.153,0.152,0.254,0.254
					c0.204,0.813,0.508,1.422,0.406,2.54c-1.066,1.472-0.355,4.062-0.457,6.246c-0.204,0.456-0.355,0.965-0.508,1.473
					c-0.66,1.371-1.32,2.742-1.98,4.164c-0.203,1.473-0.356,2.945-0.508,4.469c-0.153,0.151-0.305,0.304-0.458,0.507
					C330.05,434.644,329.796,434.696,329.593,434.797L329.593,434.797z"/>
				<path id="_138555056" fill="#FCE0EC" d="M329.846,434.188c-0.508-0.762-1.016-1.473-1.473-2.184
					c-0.305-0.103-0.609-0.203-0.914-0.254c-0.254-0.965-0.914-2.031-1.27-2.185c-0.05-0.355-0.05-0.711-0.05-1.065
					c0.152-1.066,0.406-1.828,0.406-2.691c-0.61-1.93,0.253-2.336,1.117-3.555c0.102-0.559,0.204-1.117,0.305-1.676
					c0.711-1.676,1.067-2.691,2.235-3.859c0.507-0.457,1.015-0.863,1.523-1.27c0.559-0.05,1.117-0.05,1.675-0.05
					c0,0.202,0.457,1.473,0.305,2.082c-1.066,1.421-0.457,3.96-0.507,6.296c-0.407,1.371-1.321,3.199-2.082,4.672
					c-0.153,0.305-0.254,0.609-0.355,0.914c-0.204,1.473-0.356,2.945-0.508,4.469C330.099,433.934,329.948,434.036,329.846,434.188
					L329.846,434.188z"/>
				<path id="_138547096" fill="#D7EDFB" d="M311.667,426.419c0-0.915-0.66-1.524-0.965-1.677c-0.051-0.102-0.051-0.203-0.051-0.254
					c-0.914-1.219-1.829-2.387-2.743-3.555c-1.269-0.406-2.031-0.102-2.742-0.305c-0.254-1.32,0-1.828,0.203-2.844
					c0.508-1.015,0.102-1.777,0.102-2.59c0.508-0.609,1.016-1.219,1.523-1.776c0.051-0.407,0.153-0.813,0.254-1.169
					c0-0.863-0.305-2.234,0.102-2.64c0.406-0.305,0.863-0.559,1.32-0.813c0.305-0.355,0.609-0.711,0.965-1.066
					c0.102-0.305,0.254-0.61,0.406-0.914c-0.051-0.305-0.051-0.609-0.051-0.863c-0.812-1.625-0.406-1.828,0.863-2.641
					c0.863-0.254,1.575-0.152,2.54-0.609c0.66-0.407,1.269-1.523,1.574-2.235c0.458-0.152,0.711-0.203,1.32,0.254
					c0.559,1.168,0.406,3.25,2.336,4.266c0.863,0.051,1.777,0.102,2.691,0.204c0.711-0.711,2.133-0.661,3.301-0.711
					c0.152,0.05,0.305,0.152,0.508,0.254c-0.559,0.558-1.016,0.812-1.473,1.625c-0.051,0.507-0.051,1.016-0.051,1.524
					c-1.27,0-2.996-0.407-2.691,1.167c0.355,0.204,0.66,0.406,1.016,0.914c0.254,0.153,0.508,0.305,0.762,0.508
					c-0.254,0.202-0.457,0.406-0.661,0.609c0,1.117-0.913,2.488-0.203,3.605c0.152,0.102,0.305,0.253,0.507,0.406
					c0,0.051,0,0.102,0,0.152c-0.101-0.051-0.203-0.101-0.305-0.101c-0.457,0-0.913,0-1.371,0.05c-0.407,0.407,0,0.508-0.152,1.422
					c-1.321,0.914-1.118,0.558-1.473,2.336c-0.356,0.355-0.711,0.711-1.016,1.117c-0.559,0-1.117,0.05-1.675,0.102
					c-0.356,0.355-0.458,0.863,0.355,1.473c-1.676,0.405-2.437,1.675-3.453,2.894c-0.051,0.203-0.101,0.457-0.152,0.711
					C312.58,425.86,312.175,426.114,311.667,426.419L311.667,426.419z"/>
				<path id="_138546712" fill="#FFFEE2" d="M255.2,423.625c-1.371-0.508-1.675-1.168-2.234-1.523
					c-0.355-0.152-0.711-0.254-1.016-0.356c-1.574,0-1.879-0.151-2.945,0.712c-0.254,0.305-0.508,0.66-0.762,1.015
					c0-0.761,0.204-1.319,0.355-1.727c0-0.659,0.051-1.319,0.102-1.98c-0.711-0.355-1.422-0.66-2.133-0.965
					c0-0.406,0.153-0.812,0.356-1.066c0.253-0.914,0.507-1.777,0.761-2.641c0.458-0.458,0-1.625,0-1.777
					c-0.254-0.254-0.457-0.508-0.66-0.71c-0.813,0-1.625,0.253-2.438,0.457c-0.813,0-0.711-1.066-0.711-1.168
					c-0.101-0.204-0.203-0.406-0.253-0.559c0-2.387,1.066-2.488,2.844-2.946c0.254,0,0.508,0,0.762,0
					c0.863,0.508,1.98,1.271,3.352,0.609c0.203-0.254,0.406-0.507,0.66-0.761c0.051-0.304,0.153-0.609,0.254-0.914
					c0.152-0.051,0.305-0.051,0.508-0.051c0.457,0.457,2.539,0.457,3.757,0.457c0.914-0.914,0.711-1.878,0.711-2.843
					c-1.27-1.27-2.235-1.321-3.352-1.828c-0.507-1.067-0.102-1.371,0.914-1.371c0.356,0.203,0.711,0.457,1.066,0.71
					c0.66,0.102,1.32,0.255,1.981,0.407c1.929,0,4.367-1.727,5.23-3.453c0-1.372,0.964-1.473,2.132-1.473
					c0.965,0.457,1.625,1.675,1.828,3.199c0.762,0.965,1.473,2.031,2.793,3.097c0.508,0.152,1.016,0.356,1.524,0.559
					c0.152,0.71,0.812,1.93,0,2.996c-1.676,1.117-2.793,0.305-2.54,2.844c0.355,0,0.863-0.05,1.27-0.254
					c0.661-0.05,1.32-0.05,1.98-0.05c-0.101,1.117-0.152,2.234-0.203,3.402c0.203,0.457,0.457,0.66,1.168,1.372
					c0.203,0.355,0.407,0.71,0.609,1.065c-1.168,0-1.727,0.559-2.488,1.016c-0.863,1.32-2.386,1.828-3.504,2.945
					c-0.914,0.356-2.132,0.71-2.996,0.609c-0.457-0.253-0.914-0.507-1.371-0.762c-1.27-1.421-1.066-0.914-2.336-1.016
					c-0.203,0.102-0.407,0.204-0.559,0.356c-0.051,0.355-0.102,0.711-0.102,1.066c-0.863,0.863-1.777,1.777-2.437,2.793
					C256.215,423.524,255.606,423.574,255.2,423.625L255.2,423.625z"/>
				<path id="_138546552" fill="#D7EDFB" d="M284.551,423.371c-0.813-0.813-1.676-0.254-2.336-0.102
					c-0.152-0.254-0.305-0.508-0.457-0.762c0-1.727-1.219-1.269-1.93-1.269c0-0.254,0-0.458,0-0.66
					c0.66-1.168,1.523-2.489,1.676-3.504c-0.813-0.813-1.473-1.473-1.574-2.184c-0.711-0.914-1.016-0.66-1.524-0.66
					c-0.507,0.101-1.015,0.203-1.523,0.355c-0.66,0.66-1.371,1.065-1.98,1.421c-0.559,0-1.066,0.051-1.575,0.102
					c-0.203-1.321-1.066-1.777-1.472-2.184c-0.102-0.152-0.203-0.304-0.254-0.457c0-1.27,0-2.539,0.051-3.808
					c-1.27,0-2.234,0.051-3.148,0.354c0-1.269,0.507-0.964,1.574-1.269c0.965-0.457,1.473-1.574,1.473-2.488
					c-0.254-0.965-0.508-1.93-0.711-2.844c-0.051-1.168-0.102-2.285-0.102-3.402c-0.101-0.406-0.203-0.813-0.305-1.168
					c1.067-0.507,1.523-1.523,1.981-2.539c0.913-0.559,1.574-1.422,2.995-0.964c0.458,0,1.067-0.102,1.27-0.711
					c0-1.066-0.356-1.219-0.762-1.625c0.152-0.813,1.777-0.204,2.742,0.152c0.458,0.05,0.914,0.102,1.422,0.152
					c0.914,0.508,2.386,1.168,3.504,1.98c0.457,0.153,0.964,0.306,1.473,0.508c0.457,0,0.914,0,1.421,0.051
					c0.305-0.407,0.661-0.813,1.016-1.168c0.457,0,1.168,0.457,1.879,1.371c0.305,0.153,0.609,0.305,0.965,0.508
					c0.813,0.202,2.183,1.269,3.098,2.488c0.305,1.117,0.66,2.285,0.051,3.809c-1.575,1.727-2.488,2.589-1.066,5.129
					c0.051,0.304,0.152,0.609,0.254,0.965c0.355,0.355,0.863,2.64,1.066,3.656c0.66,0.863,0.66,1.473,0.305,2.792
					c0,0.813-0.051,1.778,0.457,3.047c-1.777,0.051-3.555,0.102-5.332,0.204c-0.406,0.406,0.355,1.269,0.964,1.98
					c-0.101,0.254-0.203,0.558-0.253,0.863c-0.762,0-1.777-1.422-1.878-1.523c-0.56-0.051-1.118-0.051-1.625-0.051
					c-0.305,0.457-0.609,0.914-0.914,1.371C285.414,421.746,285.364,422.964,284.551,423.371L284.551,423.371z"/>
				<path id="_138539064" fill="#FCE0EC" d="M297.957,422.964c-0.356-0.355-0.813-0.304-1.168-0.456
					c-0.051-0.102-0.051-0.203-0.051-0.305c0.66-0.813,1.32-1.625,1.98-2.438c0-0.965-0.101-1.167-0.305-1.625
					c-1.015,0-1.32,0.152-1.929,0.508c-0.458,0-0.914,0-1.372,0.051c-0.203-0.66-0.406-1.32-0.559-1.929
					c0-1.524,0.458-2.743,0.153-3.911c-0.153-0.152-0.305-0.305-0.458-0.457c0-1.625-1.015-3.199-1.219-4.366
					c-0.761-1.575-1.117-2.336-0.254-3.555c0.508-0.153,1.27-1.575,1.523-2.032c0-0.863,0-1.727,0-2.59
					c-0.203-0.507-0.406-1.015-0.609-1.523c-0.152-0.153-0.305-0.305-0.406-0.457c0.355-0.356,0.762-0.711,1.168-1.016
					c0.05,0,1.523-0.203,1.676-0.508c0.102-0.05,0.203-0.05,0.355-0.05c0.761-1.168,2.437-1.726,3.503-2.589
					c0.661-1.321,2.945-0.863,4.316-1.879c0.406-1.066,0.406-1.066,1.676-1.066c0,0.761,0.051,1.523,0.102,2.336
					c0.254,0.406,0.762,0.355,1.32,0.406c0.813-0.66,0.559-1.575,0.965-1.98c0.152,0.356,0.61,1.625,1.777,1.879
					c0.863,0,1.574-0.102,2.59-0.609c0.254,0,0.559,0,0.863,0c-0.458,0.964-1.625,1.473-1.321,2.69
					c0.863,0.915,1.625,1.93,2.438,3.403c-0.051,0.355-0.051,0.761-0.051,1.168c-0.305,0.304-0.406,0.71-0.71,1.319
					c-1.219,1.524-2.285,0.915-3.504,1.524c-1.27,1.066-1.574,0.762-1.371,2.59c0.508,0.508,0.457,1.168,0.051,1.98
					c-0.355,0.356-0.711,0.711-1.015,1.067c-1.777,1.219-1.676,0.914-1.372,3.503c-0.152,0.457-0.254,0.915-0.355,1.371
					c-1.117,0.964-1.422,1.016-1.422,2.641c0.051,0.355,0.102,0.711,0.153,1.117c-0.356,0.761-0.762,2.184-0.609,3.352
					c0.101,0.203,0.203,0.457,0.305,0.71c-0.609,0.305-1.168,0.61-1.727,0.965c-1.218-1.219-2.387-0.305-3.656,0.254
					C298.921,422.609,298.413,422.762,297.957,422.964z"/>
				<path id="_138538680" fill="#D8ECE0" d="M235.751,416.618c-0.153-0.051-0.305-0.101-0.458-0.153
					c-1.117-0.914-1.776-0.964-2.589-1.574c-0.254-0.305-0.508-0.559-0.71-0.812c0-0.254,0-0.508,0-0.711
					c1.32-1.574,0.609-2.387-0.153-3.504c-1.117-1.117-1.523-2.539-2.133-3.148c-0.762-1.828-0.609-1.371-1.98-1.523
					c-0.305-0.153-0.609-0.254-0.863-0.355c-0.406-0.559-0.812-1.118-1.167-1.676c-0.305-0.813-0.609-1.625-0.863-2.438
					c-0.254-0.355-0.508-0.66-0.711-0.965c-2.082,0-1.015,1.879-1.675,3.199c-0.152-0.05-0.305-0.102-0.407-0.152
					c0-1.219-0.66-2.286-0.863-3.097c0.508-0.306,0.407-1.372,0.407-1.422c0.051-0.66,0.102-1.269,0.203-1.878
					c-0.66-1.169-0.863-2.54-0.609-3.453c0.305-0.407,0.609-0.813,0.965-1.168c-0.102-0.761-0.152-1.523-0.203-2.234
					c-0.355-0.559-0.711-1.067-1.016-1.575c-0.305-1.167-0.661-2.488-1.016-3.097c-1.27-1.422-2.488-2.996-2.691-4.215
					c-0.609-0.406-1.219-0.812-1.777-1.168c-0.102-0.152-0.203-0.305-0.305-0.457c-0.102,0-0.152,0-0.203,0
					c0-0.863-0.153-1.675,0.05-2.132c1.168-0.559,1.118-1.625,1.118-2.59c-0.407-0.507-0.813-1.016-1.168-1.473
					c0-0.355,0-0.711,0-1.067c1.168-0.102,2.336-0.152,3.555-0.203c0.457,0.153,1.32,1.016,1.776,1.98
					c0,1.372,1.27,2.996,2.691,4.215c0.508,0.05,1.016-0.152,1.575,0.913c0.507,0,1.016-0.05,1.726-0.608
					c0.102-0.051,0.203-0.051,0.356-0.051c0.051,0.051,0.152,0.102,0.253,0.204c0,0.66,0.813,0.71,1.676,0.812
					c0.102,0.152,0.254,0.305,0.406,0.508c0.305,0,0.609,0,0.965,0c0.254-0.255,0.559-0.508,0.863-0.711
					c0.71-0.152,1.472-0.305,2.234-0.407c0.102-0.203,0.204-0.406,0.355-0.558c0-1.574-1.219-3.605-0.559-4.266
					c0.356,0.204,0.711,0.863,1.676,1.219c0.102,0.102,0.204,0.254,0.355,0.406c0.66,0.305,1.676,0.355,2.641,0
					c0.254-0.254,0.507-0.508,0.812-0.761c0-1.523-0.507-1.93-0.609-2.641c0.508-0.508,1.524-1.929,2.59-1.219
					c0.355,0.762,0.508,1.32,1.828,2.183c0.355,0.153,0.762,0.305,1.168,0.508c0.559,0.812,1.879,1.32,2.691,2.792
					c0.102,0.305,0.204,0.661,0.355,1.016c0.254,0.559,1.016,1.879,2.133,2.235c1.117-0.052,2.234-0.052,3.351-0.052
					c0.762-0.406,1.219-0.863,2.387-0.71c0.711,0.203,1.422,0.457,2.133,0.71c0.66,0,1.371,0,2.082,0.052
					c0.762,0.558,1.016,1.117,2.489,1.269c0.305,0.254,0.66,0.508,1.015,0.813c0,0.812,0,1.625,0,2.437
					c-1.015,1.016-1.675,2.488-2.031,3.859c-0.66,1.015-1.473,1.98-2.438,2.945c-2.031,0.507-2.031-0.356-3.3-1.219
					c-0.711-0.913-1.625-0.965-2.082-0.913c-0.102,0.101-0.204,0.202-0.255,0.304c0,0.609,0,1.27,0,1.93
					c0.407,0.813,0.458,1.523,0.458,2.742c-0.254,0.863-0.508,2.133-0.203,3.352c0.253,0.254,0.507,0.559,0.761,0.863
					c0.66,0.305,1.98,2.031,0.762,3.25c-1.118,0.761-1.168,0.406-1.168,1.98c0.507,1.016,2.234,0.863,3.554,2.184
					c0,0.457,0,1.574-0.507,2.082c-1.422,0-2.895-0.254-3.657-0.609c-0.05-0.914-0.304-1.777-0.558-2.234
					c-1.269,0-1.371,0.66-2.234,1.066c-0.457-0.051-0.863-0.051-1.27-0.051c-1.422-1.015-1.625-2.438-1.828-3.503
					c-0.204-0.254-0.406-0.508-0.559-0.71c-2.031,0-2.539-0.254-2.843,1.625c-0.559,0.559-0.915,0.458-1.422,0.761
					c0,0.254,0,0.56,0.051,0.863c0.406,0.508,1.269,1.372,0.914,2.641c-0.458,0.914-1.93,1.523-2.641,2.031
					c-0.102,0.152-0.203,0.305-0.305,0.457c0,0.609,0,1.269,0,1.93c0.406,0.863,1.371,0.355,1.371,2.488
					c-0.152,0.254-0.254,0.508-0.355,0.813c-0.406,0.152-0.762,0.355-1.117,0.558C237.884,415.754,236.817,416.161,235.751,416.618
					L235.751,416.618z"/>
				<path id="_138538296" fill="#FFFEE2" d="M192.233,408.138c-0.507-0.508-3.656-0.355-4.062-0.355
					c-0.203,0.05-0.407,0.101-0.609,0.202c-2.895-0.202-1.27-1.269-0.762-2.691c0-0.355,0-0.71,0-1.066
					c-1.93-0.609-1.777-1.117-2.082-2.235c-0.102-0.152-0.203-0.305-0.305-0.406c-1.016,0-1.777-0.101-2.488-0.304
					c-0.305-0.406-0.559-0.813-0.813-1.168c-1.27-0.355-2.438-0.965-2.945-1.371c-0.203-0.102-0.407-0.203-0.61-0.254
					c-0.609,0-1.167,0-1.726,0c-0.762,0.457-1.219,1.269-2.184,1.625c-0.253,0.204-0.457,0.406-0.66,0.609
					c-0.152,0.254-0.254,0.508-0.355,0.762c-0.153,0.609-0.254,1.27-0.355,1.929c-2.387-0.355-1.727-2.438-1.016-3.707
					c0-0.254,0-0.508,0-0.762c-1.066-0.813-1.015-0.508-1.726-0.609c-2.031,0.406-2.996,0.508-4.316,1.269
					c-1.472,0-2.234-1.015-2.589-1.776c-0.254-0.254-0.508-0.508-0.711-0.711c-1.32,0-2.589,0-3.859,0
					c-1.066-0.711-1.219-2.082-1.625-2.793c-0.813-0.254-0.863-0.203-1.168-0.711c-0.355-0.304-0.711-0.558-1.066-0.812
					c-0.661-0.254-1.32-0.457-1.98-0.661c-1.98-1.726-1.473-1.98-1.727-3.858c-0.152-0.306-0.305-0.609-0.457-0.915
					c-0.762,0-1.473,0-2.183,0.052c-1.524-0.508-1.422-0.965-1.625-1.879c-0.66-0.813-1.117-1.066-1.523-1.27
					c-0.66-0.559-1.32-1.117-1.929-1.675c-0.559-0.914-1.117-1.828-1.676-2.742c-1.067,0-1.372,0.051-1.981,0.305
					c-0.406,0.203-0.812,0.406-1.168,0.66c-0.609,0-1.219,0-1.777,0c-1.625-1.067-1.726-2.54-1.929-3.707
					c-0.507-0.762-0.965-1.524-1.421-2.286c-1.524-1.523-3.403-2.031-4.875-2.488c-1.066-0.762-0.457-1.523-0.152-2.032
					c0.406-0.254,0.609-0.964,0.71-1.117c0-1.218,0.051-2.386,0.102-3.554c-0.558-1.523-1.015-1.676,0.559-1.676
					c0.153,0.102,0.305,0.254,0.508,0.406c0.204,0.508,1.168,2.387,2.286,0.965c0.152-0.508,0.305-0.965,0.457-1.422
					c-0.102-1.066-0.203-2.082-0.254-3.098c-0.305-0.813-0.609-1.574-0.914-2.336c-0.355-1.777-0.203-2.488,0.863-3.301
					c0.153-0.253,0.305-0.508,0.508-0.762c0.609,0.254,1.219,0.508,1.879,0.762c0.559,0,1.117,0,1.727,0
					c0.457-0.457,1.016-0.66,1.574-1.32c0.609-1.676,1.27-2.539,2.895-3.454c0.457,0,0.457-0.05,1.421,0.254
					c0.711,0.457,1.473,0.914,2.235,1.371c0,1.371,1.523,0.711,2.488,0.407c0.559-0.102,1.168-0.203,1.777-0.305
					c1.219-1.219,1.067-1.777,2.793-0.66c0,1.421,0,1.269,1.524,2.234c0.558,0.203,1.117,0.457,1.726,0.71c0.457,0,0.914,0,1.422,0
					c0.863-0.406,1.828-0.762,3.097-0.863c1.727-0.661,1.676-0.915,3.708,0.101c0.66,0,1.32,0,2.031,0.051
					c0.661-0.508,0.508-0.965,1.32-1.168c1.473-1.219,2.184-1.829,4.57-0.661c1.625,0,3.809-0.355,5.789-0.355
					c0.458,0.203,0.914,0.457,1.372,0.711c0.355,0.355,0.914,1.066,1.929,1.32c0,0.355,0,0.762,0.051,1.167
					c0.406,0.609,1.574,1.574,1.117,2.996c-0.305,0.508-0.609,1.016-0.863,1.523c0,0.609,0,1.219,0,1.828
					c0.356,3.148-0.305,6.449,2.539,9.293c0.457,0.254,1.422,0.914,2.285,1.269c0.711,0.102,1.422,0.204,2.132,0.355
					c1.016,1.98,2.59,2.641,5.231,3.047c1.066,0.812,1.777,1.675,3.656,1.878c1.727-0.05,3.454-0.102,5.18-0.102
					c0.355,0.102,0.762,0.254,1.168,0.407c0.508,0.305,1.066,0.66,1.625,1.016c0.305,0.762,0.66,1.523,1.016,2.285
					c0.355,1.372,0.305,1.523,1.828,2.844c0.355,0,0.71,0,1.066,0.05c0.152-0.305,0.355-0.609,0.558-0.913
					c0.305-0.052,0.609-0.102,0.915-0.102c0,0.558,0.66,0.965,1.574,0.965c0.559-0.356,1.117-0.711,1.727-1.067
					c0.66-0.813,1.219-1.98,1.929-2.691c0.051-0.051,0.102-0.051,0.203-0.051c0.255,0.355,0.965,0.864,1.879,1.421
					c0.305,1.27,1.473,2.844,2.843,4.316c0.305,1.067,0.609,2.134,0.965,3.2c0.458,0.661,1.168,1.574,1.168,3.046
					c-1.117,1.321-1.168,1.169-1.117,3.199c0.254,0.863,1.016,2.032,0.507,3.353c0,0.304,0,0.66,0,1.015c-0.101,0-0.203,0-0.253,0
					c0-0.406-0.762-0.711-0.965-0.965c-1.269,0-1.421,0.458-1.98,0.863c0,0.762,0.305,1.625,0.507,2.945
					c-0.05,0.407-0.101,0.813-0.152,1.219c-0.203,0.051-0.407,0.152-0.609,0.254c-0.407,0-0.813,0-1.168,0
					c-0.559-0.711-1.066-1.371-1.574-2.031c-1.98-0.964-3.148,0.559-2.742,2.539c-0.153,0.253-0.305,0.507-0.407,0.813
					c-0.863,0-1.929-0.56-2.133-0.762c-0.101-0.407-0.203-0.762-0.254-1.118c-1.219-0.66-2.285-0.914-3.047-1.218
					c-0.203-0.254-0.406-0.508-0.559-0.711c-1.675,0-1.523,0.304-2.691,1.219c-0.71,0.355-1.421,0.761-2.082,1.167
					c-1.625,0.305-1.371,0.508-2.285,1.778c-2.133,0.254-1.93,0.254-3.097,1.828c-0.204,0.152-0.356,0.304-0.508,0.457
					C193.756,407.579,193.147,407.833,192.233,408.138z"/>
				<path id="_138538136" fill="#D8ECE0" d="M320.451,404.837c-1.473-0.254-1.879-0.457-2.438-1.016
					c-0.355-1.066-0.71-2.132-1.066-3.147c-0.305-0.305-0.609-0.559-0.914-0.813c-0.305-0.05-0.609-0.102-0.914-0.102
					c0.507-1.878-1.575-3.758-2.336-4.519c0-0.813,0.965-1.422,1.27-1.929c0-0.965,0.914-1.118,1.574-1.625
					c0.204-0.355,0.407-0.66,0.609-0.965c0-0.762-0.101-2.285,0.102-2.489c0.507-0.05,0.965-0.913,1.929-0.304
					c0.406,0,0.863,0,1.321,0c0.609-0.813,1.929-0.407,3.047-0.153c0.355,0.508,1.421,1.219,2.488,0.71
					c0.559-0.406,1.219-1.625,2.184-0.66c0.406,0.152,0.813,0.305,1.219,0.508c0.609,0.051,1.269,0.102,1.93,0.204
					c-0.203,0.457-3.199,1.929-2.184,2.945c0.458,0,0.965,0,1.473,0c0.204-0.203,0.407-0.406,0.609-0.609
					c0.051,0.203,0.204,0.863-0.152,1.219c-0.965,0.203-1.321,0.406-1.828,0.762c0,0.305,0.051,0.609,0.102,0.914
					c0.305,0.153,0.609,0.305,0.964,0.508c-0.203,0.812-0.203,1.371-0.203,2.59c0.102,0.355,0.406,1.523-0.102,2.031
					c-0.152,0-0.305,0.051-0.406,0.102c-0.051-0.203-0.051-0.406-0.051-0.609c-0.914-0.609-2.336,1.575-2.793,2.032
					c-0.152,0.254-0.254,0.558-0.355,0.863c-0.051,0.914-0.102,1.828-0.102,2.792c-0.203-0.051-0.355-0.102-0.508-0.102
					C322.838,403.974,322.076,404.176,320.451,404.837L320.451,404.837z"/>
				<path id="_138520912" fill="#FCE0EC" d="M270.333,404.176c-1.879-0.812-2.691-2.234-3.555-3.301
					c-0.305-2.437-1.981-4.468-4.113-3.199c-0.609,0.609-0.711,0.457-0.863,1.473c-0.508,0.863-1.371,1.574-2.184,2.286
					c0,0.05,0,0.102,0,0.203c-0.355,0-0.458,0.153-0.559,0.254c-0.355,0.101-0.711,0.254-1.067,0.406
					c-1.625,0-3.046-0.457-3.808-1.219c0.559-1.117,0.406-1.878,0.102-2.691c-0.812-0.812-1.727-1.625-1.879-2.335
					c0.102-1.371,0.204-2.742,0.355-4.063c-0.355-1.32-0.559-2.032-0.457-2.895c0.051-0.05,0.101-0.101,0.152-0.101
					c0.559,0.355,1.117,0.71,1.676,1.066c0.406,0.356,0.812,0.762,1.218,1.169c2.64,1.066,4.672-2.54,5.434-4.622
					c0.559-0.914,1.117-1.828,1.675-2.691c0-0.761,0-1.473,0-2.184c0.305-0.203,0.661-0.406,1.016-0.609
					c1.422-0.102,2.539-0.508,4.164,0.711c0.559,0.508,1.117,1.016,1.675,1.523c0.661,0.153,1.321,0.305,2.031,0.508
					c0.863,0.457,3.25,1.929,3.25,3.555c-1.117,0.66-1.98,1.675-2.895,2.284c-2.082,0.813-4.316-0.304-5.839,0.813
					c0.051,0.305,0.101,0.66,0.152,1.015c0.762,1.117-1.168,2.336,0.965,3.758c0.458,0.457,0.915,0.914,1.422,1.371
					c0.458,0.609,0.914,1.219,1.372,1.878c0.152,0.559,0.304,1.168,0.508,1.778C270.282,401.587,270.282,402.856,270.333,404.176
					L270.333,404.176z"/>
				<path id="_138520648" fill="#FFFEE2" d="M270.282,398.337c-0.863-1.777-2.641-3.098-3.657-4.164
					c-0.203-0.812-0.102-1.016,0.102-1.473c0-0.355,0-0.71,0.051-1.016c-0.153-0.304-0.305-0.609-0.407-0.863
					c0.762-0.609,3.402-0.304,4.672-0.304c1.016-0.355,1.93-1.067,2.691-1.93c0.406-0.305,0.863-0.61,1.32-0.915
					c0-0.354,0-0.66,0.051-0.964c-1.066-1.727-2.335-2.743-3.555-3.352c-0.101-0.203-0.203-0.406-0.253-0.609
					c-0.051-0.762-0.101-1.523-0.101-2.285c0.608-0.609,0.863-1.067,1.827-1.422c1.016-0.66,0.153-1.777-0.152-2.184
					c-0.559-0.406-1.067-0.609-1.27-1.066c1.421,0,2.844,0,4.316,0c0.559,0.101,1.168,0.202,1.777,0.304
					c0.508,1.067,2.132,2.336,3.91,2.742c0.355,0.153,0.762,0.305,1.168,0.508c1.879,0,3.758,0.05,5.688,0.101
					c0.609,0.407,1.219,0.813,1.879,1.219c0.101,0.407,0.508,1.117,1.422,1.727c0.863,0.051,1.727,0.153,2.641,0.254
					c0.609,0.254,1.269,0.558,1.929,0.863c0.254,0.254,1.422-0.204,2.387,0.507c0,0.304,0.203,0.66,0.762,1.117
					c0.152,0,1.727,0.152,1.727,1.015c-0.61,0.762-0.661,0.508-0.813,1.727c0.203,0.407,0.964,0.863,1.371,1.93
					c0,0.558,0,1.473,1.066,1.98c0,0.051,0,0.102,0,0.204c-2.742,0.304-3.3,1.371-5.433,2.792c-0.559,0.153-0.863,0.559-1.219,1.016
					c-1.372,0.66-1.98,0.203-2.895,1.421c-0.204,0.101-0.406,0.203-0.559,0.305c-0.508-0.457-1.016-0.914-1.523-1.32
					c-1.676-0.355-2.234-1.422-3.047-1.98c-1.32,0-1.168,0.102-1.879,1.117c-2.488-0.102-4.468-1.625-5.992-2.54
					c-1.27-0.101-2.235-0.406-2.844-0.66c-2.132,0-2.792,0.254-1.219,2.082c-0.101,0.152-0.203,0.356-0.304,0.559
					c-0.253-0.051-0.508-0.101-0.711-0.101c-2.539,0-3.148,0.964-4.113,3.097C270.789,397.931,270.535,398.134,270.282,398.337
					L270.282,398.337z"/>
				<path id="_138520264" fill="#FBE0D5" d="M306.843,393.005c-0.101-0.102-0.203-0.152-0.253-0.203c0-0.711,0-1.422,0.051-2.133
					c-0.152-0.152-0.305-0.304-0.458-0.406c-1.675,0-1.675-0.051-2.336,1.269c-0.203,0.051-0.355,0.153-0.507,0.254
					c0-0.406-0.356-0.558-0.711-0.812c-0.101-0.204-0.203-0.355-0.305-0.508c0-1.625-0.71-1.574-1.015-2.489
					c-0.153-0.102-0.305-0.203-0.407-0.304c0-0.863,0.458-0.915,0.863-1.321c0-1.777-1.726-1.473-2.437-2.031
					c-0.051-0.254-0.102-0.457-0.102-0.66c-0.102-0.05-0.203-0.102-0.254-0.152c0-0.813,0.863-1.27,1.574-1.524
					c0.254-0.355,0.508-0.66,0.762-0.964c0-1.421-0.355-2.742-1.117-3.503c-0.406,0-0.762,0-1.118,0
					c-0.152,0.152-0.305,0.305-0.406,0.458c-0.153,0-0.254,0-0.355,0.05c-0.813-0.66-0.813-1.777-0.965-2.335
					c-0.305-0.254-0.609-0.458-0.914-0.66c0-1.067,1.32-1.778,2.032-2.54c0.304-1.371,0.05-2.54,0.05-3.707
					c0.051-0.051,0.102-0.102,0.153-0.102c0.152,0.051,0.305,0.102,0.508,0.203c0.152,0.305,0.507,1.828,1.574,2.183
					c0.305,0,0.609,0,0.965,0c0.711-1.065,0.508-1.675,1.066-2.589c0-0.203,0-0.406,0.051-0.609
					c-0.609-0.609-1.219-1.168-1.828-1.727c0-0.609,0.508-0.558,0.813-0.813c0.051,0,0.152,0,0.253,0
					c0.661,0.66,1.575,1.473,2.032,2.844c0.254,0.305,0.508,0.609,0.813,0.965c1.168,0.202,2.336,0.456,3.504,0.71
					c0.203,0.153,0.457,0.355,0.711,0.559c0.559,1.067,0.863,3.199,2.437,4.266c0.051,0.102,0.102,0.203,0.204,0.356
					c0.457,0,1.32,0.05,1.929-0.356c0.102-1.066-0.051-0.559,1.016-0.711c0.101,0.152,0.71,1.117,0.71,1.93
					c-0.71,0.354-1.676,0.304-2.183,0.304c-0.204,0.407-0.407,0.813-0.559,1.219c-0.05,0.356-0.101,0.762-0.101,1.168
					c-0.508,0.355-0.458,0.407-0.458,1.321c0.66,0.609,1.32,1.27,2.032,1.929c0.152,0.051,0.964,0.051,1.218,0.863
					c0.254,0.204,0.508,0.406,0.762,0.66c0.762,0.051,1.524,0.153,2.285,0.254c0.153,0.101,0.305,0.203,0.458,0.355
					c0,0.203,0,0.457,0.05,0.71c-1.066,1.067-2.387,0.306-2.387,1.93c0.152,0.305,0.254,0.559,0.102,0.965
					c-0.406,0.102-0.711,0.356-0.914,0.508c0,0.813,0,1.625,0,2.438c-0.965,1.422-1.929,1.625-3.351,1.878
					c-1.067,0.355-1.828,0.66-2.59,0.306c-0.761-0.762-0.914-1.422-1.32-1.829c-0.66,0.05-0.508,0.05-0.813,0.66
					c-0.102,0.458-0.204,0.965-0.305,1.473C307.148,393.005,306.996,393.005,306.843,393.005L306.843,393.005z"/>
				<path id="_138519880" fill="#D7EDFB" d="M318.928,387.572c-0.863-0.355-1.219-0.305-1.625-0.355c0-0.203,0-0.406,0-0.609
					c-1.067-0.355,1.473-1.015,1.727-1.117c0.152-0.204,0.305-0.406,0.457-0.609c0-2.234-1.473-1.878-2.742-1.93
					c-0.813-0.202-1.067-0.863-1.219-1.117c-0.965-0.406-1.574-0.863-1.828-1.269c-0.914-0.559-0.965-0.813-1.117-1.27
					c0.762-0.457,0.559-1.219,0.609-1.625c0.101-0.355,0.203-0.66,0.356-0.964c0.659,0,1.472,0.203,2.386-0.508
					c0-1.219-0.355-2.336-0.964-2.742c-0.914,0-1.118,0-1.574,0.203c-0.051,0.254-0.102,0.508-0.152,0.813
					c-0.356,0.051-0.711,0.102-1.067,0.152c-0.254-0.559-0.457-0.508-0.813-0.762c-0.965-1.726-1.32-3.148-2.184-4.214
					c-0.813-0.56-1.676-0.458-2.183-0.508c-0.609-0.204-1.219-0.406-1.829-0.559c-0.152-0.152-0.305-0.305-0.406-0.457
					c-0.508-1.32-1.625-2.691-2.387-3.25c0-0.863-0.355-2.184,0.864-1.371c0.101,0.203,0.254,0.406,0.559,0.558
					c0,0.051,0,0.102,0,0.152c0.457,0.305,0.863,0.661,1.473,1.625c0.508,0.254,1.371,0.356,2.488,0.457
					c0.813-0.253,1.372-2.589,2.387-1.066c0.254,0,0.508,0,0.813,0.051c0.355-0.457,0.711-0.915,1.066-1.32
					c0.203-1.168,0.305-2.438,1.727-2.438c0,0.406,0,0.813,0.051,1.27c0.508,0.406,1.016,0.813,1.574,1.219
					c0.914,0.305,1.93,1.168,3.352,1.777c0.965,1.93,2.082,4.011,3.605,6.297c0,0.609,0.254,1.727,0.964,2.64
					c1.676,0.863,2.691,1.372,4.52,2.743c0,0.102,0,0.203,0,0.305c-0.457,0.457-2.539,0.204-2.742,0.204c0,0.304,0,0.659,0,1.015
					c0.508,0.204,1.066,0.406,1.625,0.609c-0.203,0.406-0.305,0.609-0.102,1.269c0.609,0.305,1.27,0.609,1.93,0.915
					c0.051,0.102,0.101,0.203,0.152,0.304c0,1.067-1.117,1.473-2.031,2.032c0,0.05,0,0.152,0,0.254c-0.457,0-1.929,1.625-2.387,1.98
					c-0.559,0.152-1.117,0.355-1.675,0.559c-0.051,0.051-0.102,0.153-0.102,0.254c-0.813-0.051-1.625-0.102-2.437-0.153
					C319.639,387.166,319.283,387.368,318.928,387.572L318.928,387.572z"/>
				<path id="_138515352" fill="#FCE0EC" d="M298.363,383.255c-0.711-0.101-1.422-0.203-2.133-0.305
					c-0.559-0.305-1.117-0.609-1.676-0.863c-1.879,0-2.336,0-3.199-0.711c-0.305-0.457-0.61-0.913-0.863-1.32
					c-0.56-0.355-1.118-0.71-1.625-1.016c-1.98-0.05-3.91-0.102-5.839-0.152c-1.219-0.507-3.352-1.168-3.708-1.879
					c-0.863-0.508-0.964-0.863-1.168-1.27c-0.305-2.082-1.371-3.301-2.031-4.52c-0.305-0.761-0.559-1.522-0.813-2.285
					c-0.051-0.609-0.051-1.219-0.051-1.828c0.812,0,1.726-0.711,2.387-1.269c0.253-0.152,0.507-0.305,0.812-0.406
					c1.27-0.102,2.336-0.508,3.403-1.371c0.965-0.102,2.234-0.508,3.402-0.813c0.965-0.609,1.727-1.422,2.438-2.234
					c1.27-0.863,1.219-2.793,1.27-3.91c0.812,0.152,1.675,0.355,2.539,0.559c1.219,0,2.488,0,3.757,0
					c0.204,0.304,0.407,0.609,0.609,0.914c0.458,0.305,1.219,1.422,0.559,2.438c-0.964,0.508-1.32,0.711-1.523,1.777
					c-0.203,0.051-0.406,0.102-0.559,0.203c0,0.102,0,0.203,0,0.355c0.559,0.406,1.118,0.813,1.727,1.27
					c0,0.051,0.051,0.152,0.102,0.254c0.762,0.559,2.235,2.336,3.708,1.218c0.355,0.051,0.609,0.254,1.066,0.864
					c0.407,0.305,0.863,0.66,1.321,1.016c-0.051,0.152-0.051,0.305-0.051,0.457c-0.458,0.457-0.458,1.574-0.711,2.234
					c-0.305-0.102-0.559-0.153-0.812-0.204c-1.016-1.371-1.016-2.64-2.641-2.133c0,1.118,0.051,2.234,0.101,3.352
					c-0.355,0.863-1.472,1.93-2.234,2.54c0,0.355,0,0.711,0,1.066c0.253,0.254,0.406,0.457,1.016,0.762
					c0.152,0.558,0.304,1.167,0.508,1.777c0.051,0.152,0.355,0.813,1.27,0.813c0.508-0.507,0.457-0.66,1.32-0.507
					c0.254,0.558,1.168,2.082,0.609,3.199c-0.507,0-1.473,0.762-1.675,0.965C298.768,382.595,298.565,382.9,298.363,383.255
					L298.363,383.255z"/>
				<path id="_138514968" fill="#FBE0D5" d="M270.434,383.103c-1.828-0.66-2.183-1.422-3.148-2.234
					c-0.406-0.152-0.812-0.305-1.219-0.407c-1.269,0-2.589-0.051-3.503,0.508c-0.559,0-1.422-0.762-1.625-0.915
					c-1.472,0-1.828-1.117-2.335-1.269c-0.711,0-1.422,0-2.082,0c-0.711-0.254-1.422-0.508-2.133-0.711
					c0-0.66,0.203-0.812,0.406-1.269c0-1.219-0.102-1.371-0.559-1.574c-0.457-0.458-0.508-0.813-0.355-0.965
					c0.914-0.05,1.828-0.05,2.742-0.05c0.762-1.168,0.406-2.54,0.355-3.555c-0.254-0.458-0.457-0.915-0.66-1.372
					c-0.508-3.148-0.559-3.555,2.589-3.555c0.711,0.355,1.474,0.711,2.235,1.118c0.203,0,0.813-0.102,1.015-0.305
					c0-0.711,0-1.371,0-2.031c0-0.559,1.575-0.711,2.082-0.203c0.407,0,0.813,0,1.27,0c0.558-1.27,0.609-3.25,0.203-4.063
					c0.102-0.914,0.305-1.015,0.559-1.523c0-0.355,0-0.66,0-0.965c-0.304-0.051-0.609-0.102-0.863-0.102
					c-0.914-0.762-2.082-1.32-2.437-1.676c-1.117-0.203-2.589-0.609-3.047-1.066c0-0.66,0.203-0.813,0.458-1.219
					c-0.102-0.609-0.204-1.168-0.254-1.726c0.254,0,0.762-0.813,0.914-1.118c0.355,0,0.914-0.102,1.676,0.254
					c1.269,0.051,2.539,0.102,3.859,0.153c1.118-1.118,0.711-3.148,0.711-4.164c0-1.168,0.61-1.219,1.219-1.879
					c0.507-0.71,1.015-1.421,1.523-2.132c0.457-0.355,0.914-0.711,1.421-1.066c0.305-0.457,0.609-0.914,0.914-1.32
					c0.305,0.254,0.661,0.508,1.016,0.762c0.102,0,0.204,0,0.305,0c0.406-0.254,0.762-0.863,0.965-1.27
					c0.407,0,1.625,0.051,1.625,1.32c-0.204,0.355-0.407,0.711-0.609,1.117c0,1.371-0.153,2.488-1.321,3.656
					c-0.457,1.422,0.102,3.149,0.305,4.875c0,1.219-0.914,2.539-1.523,3.504c0,1.32,0,2.641,0,4.012
					c0.355,0.813,0.965,2.183,0.965,3.402c-0.406,1.219-0.711,2.437-0.203,4.062c0.253,0.355,0.507,0.508,0.964,1.422
					c-0.05,0.508-0.102,1.066-0.102,1.625c0.356,0.914,0.762,1.878,1.168,2.843c0.661,0.863,1.269,1.93,1.625,3.504
					c-0.457-0.102-0.915-0.203-1.371-0.254c-1.168,0-4.671-0.202-5.129,0.254c-0.05,0.153-0.05,0.355-0.05,0.559
					c0.609,0.507,1.218,1.015,1.878,1.574c0.051,0.254,0.102,0.508,0.203,0.762c-1.269,0.457-1.574,0.813-2.336,1.726
					c0,0.965,0,1.93,0.051,2.945C270.637,383.103,270.535,383.103,270.434,383.103L270.434,383.103z"/>
				<path id="_138521120" fill="#FCE0EC" d="M207.314,383.001c-0.457-0.457-0.914-0.863-1.371-1.269
					c-0.406-1.422-0.914-2.642-1.371-3.657c-1.117-1.269-2.184-1.421-3.148-1.777c-1.727,0-3.453,0.051-5.18,0.102
					c-1.828-0.254-2.691-1.219-3.605-1.879c-1.878-0.253-3.199-0.761-4.316-1.574c0-0.304-0.507-0.964-0.507-1.066
					c-0.153-0.153-0.305-0.305-0.458-0.407c-1.422-0.202-2.438-0.457-3.351-1.015c-1.981-0.559-2.742-3.605-3.047-4.824
					c-0.102-2.082-0.203-4.164-0.254-6.195c0.355-0.711,0.914-1.727,1.015-2.285c0-1.067-0.559-1.574-0.559-1.828
					c0.153-0.051,0.355-0.102,0.559-0.102c0.254,0.254,0.66,0.203,1.016,0.203c0.355-0.355,0.406-0.559,0.457-0.762
					c0.965-0.457,1.372,0.66,2.691,1.32c0.305,0,1.574,0.051,2.031-0.254c0.102-0.152,0.253-0.305,0.406-0.457
					c0-0.457,0-0.863,0-1.27c-0.762-1.016-1.473-1.523-0.914-2.336c0.457-0.305,0.914-0.559,1.422-0.813
					c0.152-0.203,0.305-0.355,0.507-0.508c0.965-1.93-0.152-2.336-0.964-2.945c-0.457-0.965-1.27-1.879-1.828-1.879
					c-0.102-0.406-0.406-0.609-0.406-1.015c0.711-0.711-0.305-1.727-0.406-1.879c0-0.102,0-0.203,0-0.305
					c1.98-0.559,4.823-0.355,7.109-0.965c1.93-1.016,3.453-1.879,6.094-1.879c0.355,0.152,0.71,0.305,1.066,0.457
					c1.93,0,4.012-0.254,6.043,0.559c1.269,0.813,2.539,1.625,3.809,2.488c0.102,0.152,0.203,0.355,0.355,0.558
					c0.66,0.508,1.676,1.371,3.097,1.879c0.458,0,0.965,0,1.473,0c0.203-0.254,0.407-0.457,0.66-0.661
					c0.203-0.964,0.051-1.878-0.203-2.437c0.508-0.508,1.32-0.355,2.234-0.305c0.457,0.305,0.965,0.609,1.473,0.964
					c0.813,0.204,1.93,0.457,3.148,0.559c0.661,0.305,1.321,0.61,1.981,0.965c0.508,0.355,1.016,0.762,1.523,1.167
					c0,0.051,0,0.102,0,0.152c0.153,0.102,0.305,0.254,0.508,0.406c0.71,0.152,1.523,0,2.488-0.203
					c0.609,0.761,1.27,1.523,1.93,2.335c0.914,0.66,1.828,1.32,2.742,1.98c0.406,0.203,0.863,0.406,1.32,0.66
					c0.813,0,1.625,0,2.438,0c0.457,0.457,1.168,2.488,1.32,3.758c0.355,0.813,0.711,1.676,1.117,2.539
					c0.051,0.71,0.102,1.421,0.204,2.133c0.355,0.507,1.269,1.625,0.305,2.589c-2.234,1.118-2.082,1.371-3.453,3.605
					c-0.559,0.406-1.117,0.863-1.676,1.32c-0.051,0.254-0.051,0.508-0.051,0.762c0.507,0.457,1.067,0.965,1.625,1.473
					c0,0.914-1.32,0.609-1.574,0.609c-0.559-0.355-1.117-0.711-1.675-1.066c-0.863,0-2.54-0.102-2.743,0.102
					c0,1.675-0.203,2.692,1.727,4.165c-0.051,0.558-0.051,1.167-0.051,1.776c0.254,0.813,0.508,1.625,0.762,2.438
					c0,0.965-0.863,0.863-1.676,0.965c-0.813,0.203-0.964,0.457-1.473,0.863c-0.203,0-0.406,0-0.559,0
					c-0.101-0.204-0.203-0.406-0.305-0.609c-0.457-0.051-0.914-0.102-1.371-0.102c0-0.406-0.355-0.609-0.609-0.761
					c-0.305-0.051-0.609-0.051-0.914-0.051c-0.101,0.203-0.863,0.762-1.117,0.661c-0.102-0.254-0.203-0.458-0.305-0.661
					c-0.508-0.101-0.965-0.203-1.422-0.305c-0.711-0.812-1.371-1.574-2.031-2.335c-0.102-0.204-0.204-0.356-0.253-0.508
					c0-1.778-0.915-2.234-1.676-3.098c-1.168-0.355-2.59-0.203-3.453-0.203c-1.675,0.254-1.117,0.203-1.27,1.98
					c0.355,0.507,0.762,1.015,1.168,1.523c0,0.305,0,0.609,0,0.964c-0.508,0.762-2.031,1.524-1.168,2.844
					c0,0.609-1.219,2.183-1.676,2.743c-0.253,0.711-0.863,0.965-1.421,1.219c-0.204,0.152-0.355,0.304-0.508,0.507
					c-0.914,0-0.914-0.66-0.965-0.813c-0.66-0.457-1.473-0.05-1.727,0C207.771,382.442,207.72,382.798,207.314,383.001
					L207.314,383.001z"/>
				<path id="_138521536" fill="#D8ECE0" d="M275.258,366.6c-1.422-0.863-1.117-1.98-1.117-2.844
					c0.153-0.508,0.305-0.965,0.457-1.422c-0.05-0.609-0.101-1.168-0.101-1.727c-0.305-0.711-0.609-1.422-0.863-2.133
					c0-1.219,0-2.438,0-3.605c0.66-0.965,0.964-1.777,1.473-2.641c0-0.457,0-0.914,0.051-1.32c-0.305-2.183-1.219-4.113,0.609-5.332
					c0.355-1.168,0.355-1.879,0.406-2.742c0.153-0.355,0.355-0.711,0.559-1.066c0.254-1.473,1.117-2.082,2.235-2.843
					c0.558-0.813,1.167-2.133,2.031-2.539c0.305-0.305,0.609-0.609,0.914-0.864c0.559,0,2.59,0.355,3.3-0.355
					c0.66-0.152,1.372-0.355,2.082-1.066c0.102-0.203,0.204-0.355,0.355-0.507c0.305,0.203,0.609,0.406,0.914,0.609
					c0,0.761-1.828,1.218-1.473,2.336c1.27,0.305,1.879,1.421,2.997,2.996c0,0.305,0,0.609,0,0.914
					c-0.762,1.371-1.27,1.32-2.438,2.082c-0.507,0.965-1.574,2.234-0.761,3.453c0.406,0.305,0.813,0.66,1.269,1.016
					c0.355,0.761,1.32,1.422,1.32,3.25c-0.203,0.609-0.355,1.269-0.507,1.929c-0.355,0.66-1.372,2.032-1.981,2.489
					c-0.05,0.203-0.05,0.406-0.05,0.609c0.355,0.406,0.762,0.813,1.168,1.219c0.254,0.762,0.254,2.184-0.102,3.352
					c-0.863,1.066-1.829,1.98-2.945,2.844c-1.168,0.253-2.336,0.558-3.504,0.863c-1.219,0.965-2.133,1.067-3.402,1.372
					c-0.457,0.253-0.914,0.508-1.32,0.762C276.223,366.295,275.665,366.498,275.258,366.6z"/>
				<path id="_138522496" fill="#D8ECE0" d="M298.616,365.99c-0.457-0.305-0.914-0.609-1.32-0.914
					c-0.711-0.609-1.421-1.219-2.082-1.777c0.152-0.355,0.305-0.71,0.457-1.016c0.508-0.406,1.118-0.914,1.421-1.422
					c0-0.559,0-1.117,0-1.625c-0.152-0.863-0.964-3.605-1.269-3.91c0-1.016-0.152-1.168,0.356-1.676
					c0.559-1.168,1.421-1.777,2.335-2.641c0.863-1.727,2.336-2.184,3.96-3.199c0.813-0.863,1.625-1.676,2.489-2.488
					c0.153,0.559,0.305,1.168,0.458,1.777c0.406,0,0.812,0,1.218,0c0.204-0.355,0.407-0.71,0.609-1.016
					c0.407,0,1.473,0.102,2.184-0.254c0,0.203,0.305,0.66,0.71,1.168c-0.05,0.711-0.05,1.422-0.05,2.133
					c0.71,0.711,2.132,1.473,3.707,1.473c0.609-1.016,1.27-2.031,1.93-3.047c0.254-0.305,0.508-0.609,0.813-0.863
					c0.609-0.406,1.371-0.762,2.488-0.609c0.66,0.254,1.371,0.559,2.082,0.863c1.523-0.051,3.098-0.102,4.671-0.102
					c0.102,0.051,0.204,0.102,0.355,0.203c-0.101,0.102-0.152,0.254-0.203,0.406c-0.051,0.508-0.102,1.016-0.153,1.523
					c-0.559,0.051-1.117,0.102-1.675,0.152c-1.625,1.016-4.265,2.133-4.672,3.91c-0.355,0.152-0.711,0.305-1.066,0.457
					c-0.407,0.609-1.067,0.711-1.575,0.863c-0.102,0.101-0.203,0.203-0.253,0.305c-0.051,0.559-0.102,1.117-0.153,1.676
					c-0.457,0.762-1.422,1.574-1.777,2.285c-0.051,0.609,0,1.575-0.508,2.285c-1.27,0-1.777,0.66-2.387,1.422
					c-0.102,0.863-0.355,1.879-1.27,2.488c-0.05-0.102-0.05-0.152-0.05-0.203c-0.204-0.152-0.355-0.305-0.508-0.406
					c-0.305-0.051-0.559-0.051-0.812-0.051c-0.407,0.457-0.813,0.914-1.168,1.422c-0.762,0.254-1.98,0-2.336-0.203
					c-0.102-0.203-0.203-0.406-0.254-0.609c-0.66-0.66-1.32-1.32-1.98-1.93c-0.407-0.051-0.813-0.051-1.22-0.051
					c-0.254,0.508-0.254,1.117-0.304,2.031c-0.661,0-1.169,0.457-1.321,0.66C299.632,365.482,298.972,365.939,298.616,365.99
					L298.616,365.99z"/>
				<path id="_138522112" fill="#FCE0EC" d="M252.305,361.42c-0.152-0.559-0.305-1.117-0.406-1.625
					c-0.102-1.676-0.457-3.047-0.609-4.113c-1.015-1.473-2.336-2.387-2.844-3.199c-0.457-0.253-0.863-0.457-1.27-0.66
					c0.254-0.508,2.336-0.813,3.25-0.965c0.863-0.71,0.609-0.813,2.133-0.965c0.254-0.355,0.559-0.711,0.863-1.066
					c-0.051-0.661-0.102-1.32-0.102-1.93c0.458-0.914,0.965-1.828,1.473-2.691c0.051-0.508,0.153-1.016,0.254-1.473
					c0.914,0,1.676-1.016,2.793-0.254c0.051,0.254,0.152,0.508,0.253,0.813c-0.253,0.559-0.507,1.117-0.711,1.727
					c-1.015,1.168-1.066,1.625-0.813,3.555c0.609,0.051,1.219,0.152,1.828,0.254c0.356,0.406,0.965,1.269,2.133,1.574
					c-0.102,0.406-0.458,0.965-0.914,1.32c-0.254,0.559-0.915,1.016-1.372,1.422c-2.183,0-0.964,0.457-1.473,2.082
					c-0.863,1.27-0.964,1.066-0.964,2.996c0.203,0.203,0.457,0.406,0.71,0.66c0.407,0.051,1.676,0.355,1.422,1.727
					c-0.102,0.203-0.204,0.406-0.305,0.66c-0.66,0.152-1.168,0.305-1.574,0.558C253.975,363.506,254.82,363.392,252.305,361.42
					L252.305,361.42z"/>
				<path id="_138519840" fill="#FFFEE2" d="M296.077,357.865c-0.204-0.254-0.406-0.508-0.609-0.711c-1.168,0-2.285,0-3.402,0.051
					c-1.066-0.254-2.132-0.508-3.148-0.711c-0.863-0.559-1.421-1.371-1.421-1.574c0.609-0.71,1.219-1.421,1.828-2.082
					c0.152-0.558,0.305-1.117,0.507-1.676c0.661-3.098-1.219-4.316-2.742-5.839c0-1.98,1.27-2.59,2.742-3.402
					c0.254-0.457,0.508-0.863,0.762-1.27c-0.051-0.508-0.051-0.965-0.051-1.422c-0.863-1.422-1.574-2.234-2.437-2.945
					c-0.153-0.05-0.305-0.102-0.407-0.102c0-0.051,0-0.101,0-0.152c0.305-0.253,0.609-0.508,0.914-0.762
					c0.203-0.355,0.508-0.812,0.508-1.168c-0.406-0.355-0.813-0.66-1.168-0.964c0-0.356,0-0.711,0-1.016
					c-0.559-0.559-0.914-0.914-1.117-1.32c0-0.711,0-1.422,0-2.133c0.203-0.305,0.457-0.609,0.711-0.863c0,0,0.66-0.102,0.914-0.355
					c0-0.762,0-1.473,0-2.184c0.457-0.457,0.457-0.609,1.117-0.762c0.355,0.203,1.066,0.609,1.066,1.625
					c-1.168,0.66-0.203,1.625,0.914,2.488c0.153,0,0.305,0,0.508,0.051c0.204-0.152,0.457-0.305,0.711-0.457
					c0-1.016,1.117-1.168,1.828-1.727c1.016-1.371,2.895-0.355,4.367-1.32c-0.051-0.863-0.102-1.726-0.102-2.539
					c0.559-0.762,0.863-0.863,1.879-1.473c1.168-1.168,1.473-0.051,2.082,1.473c0.609,0.965,1.219,1.93,1.879,2.945
					c0.101,0.863-0.051,1.371,1.371,1.93c0.609,0,1.828-0.152,2.894-0.051c-0.457,0.66-1.066,0.559-1.371,1.32
					c0,0.813-0.305,1.27,0.914,2.082c1.117,0.152,2.082,1.32,3.453,1.98c0.203,0.203,0.457,0.406,0.711,0.66
					c-0.762,1.016-1.523,2.082-2.286,3.148c0,0.965-1.828,1.981-2.539,2.286c-0.609,0.101-1.219,0.203-1.777,0.355
					c-1.219-0.711-1.676-1.777-2.387-2.133c-0.406-1.066,0-2.184-0.356-2.691c-0.507-0.204-1.015-0.406-1.523-0.559
					c-0.051-1.219,0.204-2.742,0.153-3.453c-1.27-0.102-2.438-0.102-2.691-0.863c-1.625,0-1.523-0.051-1.828,1.473
					c-0.863,0.355-1.625,1.016-2.285,1.421c0,0.458,0,0.813,0.508,1.676c-0.101,1.32-1.625,1.015-1.98,1.777
					c0,0.609-0.406,1.625,0,2.234c1.015,0,2.031,0,3.047,0c0.71-0.61,0.761-1.118,2.234-0.915c0.254,0.406,0.609,0.457,1.066,0.915
					c0.153,0.253,0.305,0.558,0.458,0.863c0.101,0.711,0.203,1.422,0.305,2.133c0.609,0.762,1.473,1.727,3.047,2.234
					c0.305,0.508,0.609,1.016,0.964,1.574c-0.71,0-1.117,0.863-1.574,1.168c-0.458,0.965-2.032,1.929-2.895,2.184
					c-0.914,0.66-1.675,1.371-2.234,2.336c-2.336,2.335-3.708,2.792-2.133,6.601C295.976,357.459,296.027,357.662,296.077,357.865
					L296.077,357.865z"/>
				<path id="_138505648" fill="#D7EDFB" d="M186.139,355.581c-0.254-0.152-0.458-0.254-0.66-0.356
					c-0.406-0.406-0.813-0.762-1.168-1.117c-1.27,0-1.371-0.356-1.828,0.812c-0.203-0.101-0.355-0.152-0.508-0.203
					c-0.406,0.051-0.812,0.102-1.219,0.152c-0.508-0.813-0.406-1.218-0.457-1.675c-0.305-0.152-0.609-0.305-0.914-0.406
					c-1.575-1.422-2.793-2.387-4.571-1.676c-1.32,0.152-2.539,0.406-3.757,0.253c-0.609-0.203-1.168-0.406-1.727-0.609
					c-0.507,0-1.016,0-1.473,0c-1.117,0.661-2.589,1.32-3.148,2.438c-0.559-0.051-1.118-0.051-1.625-0.051
					c-0.507-0.253-1.015-0.507-1.523-0.71c-1.066,0-1.371-0.102-1.828,0.355c-0.457,0.102-0.863,0.203-1.269,0.355
					c-1.219,0-1.676,0.457-2.641,0.762c-1.523,0-3.402-1.015-3.91-1.523c0-1.777-0.305-1.32-1.168-2.031
					c-1.727,0-1.27,0.051-2.336,1.269c-1.117,0.457-2.184,0.204-2.996,0.762c-0.152,0-0.253,0-0.355,0
					c-0.101-0.203-0.152-0.355-0.203-0.507c-1.27-1.422-2.996-2.184-4.418-1.98c-1.625,1.117-2.235,1.625-2.996,3.453
					c-0.66,0.914-1.219,1.219-2.183,1.371c-0.508-0.102-1.016-0.203-1.473-0.304c-0.457-0.356-0.609-0.457-0.964-0.457
					c-0.356-1.422-1.575-1.727-2.286-2.133c-0.203-0.305-0.406-0.559-0.609-0.813c0-0.711,0-1.371,0-2.031
					c0.304-0.305,0.152-1.219,0.152-1.371c-0.559-1.676-2.234-1.168-3.148-1.523c-0.305-0.305-0.559-0.559-0.813-0.813
					c-0.406-0.711-0.761-1.422-1.117-2.133c-0.609-0.152-1.168-0.254-1.726-0.355c-0.457-1.219,0.203-2.285,0.507-3.098
					c0-1.777-1.117-2.59-1.98-3.504c-0.762-0.355-1.523-0.71-2.234-1.066c-0.102-0.153-0.203-0.254-0.305-0.355
					c0-1.93-0.102-1.371,1.625-2.234c0.305-0.254,0.863-0.66,1.016-0.965c0-1.625,0-3.199,0-4.773
					c-0.355-2.234-1.98-1.625-3.199-1.675c-0.204,0.102-0.356,0.254-0.508,0.406c-0.05,0.05-0.101,0.101-0.101,0.203
					c-0.407-1.168-0.407-1.473-0.305-2.031c0.356-0.203,0.762-0.406,1.168-0.558c0-0.406,0-0.813,0.051-1.168
					c-1.219-1.828-1.372-0.661,0.609-1.981c0.355-0.609,0.761-1.219,1.168-1.777c0.659-0.305,1.32-0.559,2.031-0.813
					c2.183-0.102,3.25-0.051,5.23-1.016c0.253-0.051,0.558-0.051,0.863-0.051c0,0.66,0.203,2.133,1.524,2.539
					c0.609,0,1.472,0,2.183-0.508c0.457-0.66,0.914-1.27,1.422-1.879c0.761,0,1.473,0.254,2.488,0
					c0.457-0.508,0.812-0.762,1.371-1.117c0.254-0.051,0.559-0.051,0.864-0.051c0.66,0.203,1.371,0.66,2.59,0.66
					c1.168-0.66,3.25-0.355,4.824-1.016c0.609-0.406,1.27-0.813,1.93-1.168c0.152-0.508,0.305-1.016,0.457-1.473
					c1.372-0.457,1.676-2.387,2.133-3.352c0.508-0.254,1.219-0.609,1.675-1.066c0.204-0.559,0.407-1.117,0.609-1.625
					c0.051-0.914,0.102-1.828,0.153-2.742c-0.153-0.406-0.254-0.813-0.355-1.168c0-1.473,0.813-3.047,0-3.859
					c-0.051-0.152-0.102-0.305-0.152-0.457c1.675,0,3.199,0,4.925,0.305c1.219,0.609,2.285,0.152,3.859,1.219
					c0.203,0,0.457,0,0.71,0c0.204-0.254,0.406-0.457,0.66-0.66c0-0.254,0-0.508,0-0.711c-0.457-0.914-0.254-1.727,0.102-2.336
					c0.609-0.762,1.219-1.473,1.828-2.184c0.254-1.625,0.812-1.929,1.727-3.047c0.406-0.863,0.203-1.066,1.269-1.066
					c0.914,0.559,1.879,1.168,2.844,1.778c0.559,0.152,1.878,0,2.742,0.863c1.168,0,3.454,0.203,3.961-1.422
					c-0.102-1.117-0.203-2.234-0.253-3.351c1.219-2.438,2.64-2.336,5.281-2.59c0.66-0.203,0.965-1.32,1.219-1.828
					c0.203-0.254,0.406-0.457,0.661-0.66c0.71-0.051,1.421-0.051,2.132-0.051c0.356,0.254,0.458,1.828,0.863,2.843
					c0.661,1.016,1.372,2.082,2.082,3.148c0.609,0.305,1.575,0.661,2.844,0.965c0.457,0.304,0.914,0.66,1.422,1.016
					c0.253,0.406,0.507,0.812,0.761,1.269c0.102,0.813,0.204,1.625,0.305,2.488c0.305,0.609,0.609,1.219,0.965,1.828
					c0.102,0.965,0.457,2.793-0.406,4.113c-1.777,1.168-1.523,0.559-1.727,2.691c0.102,0.507,0.153,1.32,0.762,2.184
					c0.508,0.355,1.015,0.71,1.574,1.117c0.762,0.152,1.523,0.305,2.336,0.508c1.574,1.117,3.352,1.117,5.585,1.27
					c0.711,0.355,1.93,1.523,2.793,2.438c0.71,0.609,1.473,1.219,2.234,1.828c0.711,0.152,1.523,0.254,2.336,1.27
					c0.204,0.711,0.508,2.234,1.067,3.352c0.305,0.254,0.761,0.355,1.066,1.27c-0.051,0.457-0.101,0.914-0.101,1.422
					c0.101,0.355,0.254,0.711,0.406,1.066c-1.117,0.559-1.015,0.813-1.371,2.133c-0.051,0.508-0.051,1.067-0.051,1.625
					c0.102,0.609,0.203,1.219,0.356,1.829c-0.153,0.05-0.254,0.101-0.356,0.152c-1.219,0.051-2.387,0.102-3.555,0.153
					c-2.539,0.304-3.707,0.507-4.468,2.894c-0.762,0.762-1.168,1.168-1.524,2.387c-1.269,0.813-2.945,0.761-3.96,0.761
					c0,0.559-0.558,1.524-1.167,1.981c-0.458,0.914,0.051,1.98,0.558,3.402c0,0.406,0,0.813,0.051,1.219
					c-0.915,0.152-1.829,0.355-2.691,0.558c-0.813,0.254-1.625,0.813-2.133,1.117c-2.285,0.762-4.52,0.914-6.5,0.914
					c-0.863,0.152-0.965,0.203-1.422,0.559c0,0.609,0,0.711,0.711,1.727c-0.762,1.117-0.102,1.879,1.269,2.691
					c0.355,0.508,0.711,1.016,1.066,1.574c0.559,0.254,1.015,0.457,0.762,1.777c-0.203,0.152-0.407,0.355-0.559,0.559
					c-1.575,0.863-1.727,0.609-1.727,2.539c0.406,0.304,1.066,0.914,1.066,2.132C187.206,355.479,186.495,355.581,186.139,355.581z"
					/>
				<path id="_138493240" fill="#D7EDFB" d="M245.959,352.178c-0.609-0.609-1.219-1.219-1.828-1.777
					c-0.356-0.66-0.661-1.32-0.965-1.93c0-2.031,0.254-2.844,1.93-3.808c0.254-0.254,0.559-0.508,0.863-0.762
					c0.203-0.406,0.457-0.813,0.71-1.167c-0.051-0.254-0.051-0.508-0.051-0.762c-1.016-1.676-1.676-1.422-3.148-0.915
					c-0.406,0.305-0.761,0.61-1.117,0.915c-0.559,0.253-1.117,0.508-1.676,0.762c-0.355-0.508-0.711-0.508-1.016-0.711
					c-3.555,0-3.504-0.254-3.758,3.046c-0.711,0.711-1.777-0.305-2.031-0.305c-0.609-0.863-1.371-1.625-1.777-2.031
					c-0.508-1.371-1.016-2.336-2.082-2.539c-0.61-0.66-1.219-1.27-1.777-1.879c-0.356-0.102-0.711-0.203-1.067-0.254
					c0-1.371,1.372-1.473,2.133-2.488c0.203-0.508,0.406-0.965,0.66-1.422c0-0.914-0.102-1.27-0.507-1.574
					c-2.082,0-4.266,0.254-5.941,0.965c-0.711,0.508-0.863,0.457-1.422,0.457c0-0.711,0.05-1.422,0.101-2.082
					c-0.254-0.355-0.507-0.711-0.761-1.016c-0.609-0.507-1.168-1.016-1.727-1.473c0-0.964,0.305-1.168,0.559-1.98
					c0-1.066,0-1.828-0.204-2.539c-0.355-0.457-0.71-0.914-1.015-1.32c0-0.559,0-1.118,0-1.625c1.574,0.406,3.199,0.812,4.824,1.219
					c2.792,0,5.586,0,8.378,0.051c0.762,0.254,2.387,0.457,3.402,0.965c0.863,0.711,1.777,1.422,2.691,2.184
					c0.203,0.101,0.457,0.203,0.711,0.355c0.812,0.102,1.675,0.254,2.539,0.406c0.355,0.253,0.71,0.508,1.117,0.762
					c1.066,0.304,2.132,0.66,3.199,1.015c0.813,0.406,1.727,2.438,3.453,1.168c0.559-0.863,1.574-1.168,2.589-1.574
					c1.117-0.914,1.473-1.066,3.149-1.422c0-0.508,1.117-0.558,1.523-0.812c0.965-0.152,1.828-1.168,2.793-1.32
					c0.863-0.559,1.575-0.559,2.895-0.458c0.965,0.203,4.52,1.067,5.586,0c2.335-0.152,3.961-2.336,5.434-4.113
					c0.507-0.457,1.066-0.914,1.625-1.371c0.458-0.406,0.914-0.813,1.422-1.168c0.406-0.152,1.066-0.508,1.523-0.965
					c-0.051-0.457-0.051-0.863-0.051-1.27c-0.559-0.558-1.117-1.066-1.676-1.574c-0.102-0.356-0.203-0.711-0.254-1.016
					c0.102-1.879,0.051-3.098,1.727-3.758c0-0.661,1.067,0.305,2.285,1.219c0.406,0.102,0.813,0.254,1.27,0.406
					c0.406,0,0.863,0,1.32,0c1.574-0.457,2.945-2.641,4.113-3.961c0.813-0.813,1.523-0.355,2.742-0.355
					c0.508-0.508,1.067-0.609,1.777-0.914c0.406-0.406,0.863-0.813,1.321-1.219c0.406,0,0.71-1.523,0.71-1.625
					c0.863-2.387,1.473-1.473,3.656-2.438c0.711-0.863,1.473-1.32,2.488-1.828c0.813-0.813,3.859-0.305,5.586-0.203
					c0.203-0.102,0.457-0.203,0.711-0.305c1.117-1.117,0.507-2.589-0.051-3.351c-0.406-0.406-0.813-0.813-1.219-1.168
					c-0.762-0.457-1.523-0.914-2.286-1.32c-0.203-0.863-1.32-1.727-1.473-1.879c-0.507,0-1.015,0-1.523,0.051
					c-0.253,0.254-0.507,0.558-0.71,0.863c-0.507-0.05-1.016-0.05-1.473-0.05c-0.102,0.609-0.203,1.218-0.305,1.828
					c-1.117,0.407-2.438-0.558-2.894-0.762c-0.458,0-0.914,0-1.321,0c-0.965,0.305-1.422,0.762-1.98,1.219
					c-1.524,0-1.777-1.117-1.777-1.878c0.457-0.457,0.965-0.914,1.473-1.371c0-1.219-0.102-1.879,0.051-2.641
					c0.254-0.66,0.559-1.27,0.863-1.879c0-1.574-0.102-2.285,0.66-3.25c0.304,0,0.609,0,0.964,0c1.32,0.152,3.656,0.661,5.129-0.457
					c0.863-0.914,1.98-1.676,2.742-2.691c0-1.421-0.152-5.128,1.066-5.738c1.117-1.473,0.609-2.996,1.726-4.113
					c-0.05-0.66-0.05-1.32-0.05-1.98c-0.102-0.152-0.153-0.305-0.204-0.457c-0.356-0.406-0.711-0.813-1.066-1.167
					c-0.355-0.204-0.66-0.356-0.965-0.508c0-1.421,0.761-1.98,1.98-2.539c1.016,0,1.625-0.914,2.743-0.914
					c0,0.305,0.253,0.457,0.507,0.711c-0.051,0.406-0.101,0.863-0.152,1.32c-0.66,0.66-0.965,0.66-0.965,1.726
					c0.355,0.254,0.711,0.559,1.117,0.863c0.407,0.609,0.609,0.762,1.828,0.965c0.102-0.609,0.203-1.167,0.305-1.726
					c0.559,0,1.117-0.153,2.133,0.507c0.102,0.204,0.253,0.406,0.406,0.609c0.152,1.066,0.355,2.438,1.218,3.555
					c0.153,0.102,0.355,0.203,0.559,0.355c0.457-0.051,0.965-0.102,1.473-0.152c1.32-0.66,2.843-0.203,4.113-1.473
					c0.812-1.93,2.183-2.234,3.503-0.254c0.305,0.863,0.609,1.727,0.964,2.59c0,0.863-0.71,3.707-1.269,4.621
					c0,0.406,0,0.813,0,1.219c0.356,0.711,0.71,1.473,1.117,2.234c0,0.914-1.574,2.793,0.254,4.011
					c0.203,0.609,0.102,1.828,0.051,2.945c-0.355,0.051-0.711,0.102-1.066,0.152c-0.711-0.711-0.356-1.422-0.356-1.828
					c-0.152-0.508-0.204-0.508-0.559-0.863c-2.082,0.101-0.609,0.812-1.422,2.082c-1.066,0.914-1.473,1.523-1.777,3.047
					c-0.253,0.66-1.269,1.625-1.878,2.031c-0.051,0.559-0.102,1.168-0.102,1.777c0.355,0.355,0.458,0.66,0.965,1.473
					c0.508,0.305,1.066,0.66,1.625,1.015c0.407-0.051,0.813-0.101,1.219-0.101c0.204-0.406,0.457-0.813,0.711-1.168
					c0.101,0.152,0.559,0.812,0.559,1.625c-0.609,0.203-1.219,0.406-1.777,0.66c0,0.406-0.153,1.27,0.761,1.727
					c-0.558,0.812-1.371,1.878-2.132,2.335c-0.255-0.051-0.458-0.102-0.661-0.152c-0.66-0.457-1.32-0.863-1.98-1.27
					c-0.305,0-0.609,0-0.863,0c-0.153,0.254-0.508,0.711-0.559,1.066c0,0.407,0,0.813,0.051,1.27c0.407,0.66,1.93,1.016,2.844,2.539
					c0,0.559,0,1.168,0,1.777c0.457,0.711,1.015,2.082,1.472,3.301c0.102,0.152,0.254,0.305,0.407,0.457c0.204,0,0.457,0,0.711,0.05
					c0.203-0.457,0.457-0.914,0.71-1.32c0.407-0.355,0.813-0.66,1.27-0.965c0.305,0.609,0.965,1.371,1.523,2.691
					c0.203,1.066,0.152,2.031,1.777,2.843c0.051,0.152,0.101,0.305,0.203,0.457c-0.253,0.508-0.152,1.777-0.152,2.742
					c-0.204,0.153-0.406,0.355-0.559,0.559c-0.914,0-1.067-0.406-1.422-0.559c-2.488,0-2.843,0.305-3.707,2.082
					c-0.152,0.102-0.305,0.203-0.407,0.355c0,0.508-2.488,2.082-2.843,2.336c-0.254,0.508-1.675,1.473-2.234,1.828
					c-0.204,0.203-0.407,0.406-0.559,0.609c-0.304,0.051-0.559,0.102-0.813,0.152c-0.305-0.305-0.609-0.609-0.914-0.864
					c-0.508-1.574-0.964-1.625-1.98-1.625c-0.559,0.965-0.863,2.691,0.406,3.961c0.05,0.66,0.101,1.32,0.152,1.98
					c-1.675,0.152-3.199,0.406-4.164-0.305c-0.203-1.574-0.71-1.98-1.32-2.742c-0.458-0.965-0.914-1.93-1.32-2.844
					c-1.016-1.016-0.863-0.66-1.676-0.762c-0.711,0.711-1.777,1.219-2.488,1.879c-0.305,0.609-0.356,1.727-0.051,2.945
					c-1.015,0.102-2.031,0.203-3.046,0.305c-0.915,0.559-1.829,1.117-2.743,1.675c-0.253,0.406-0.457,1.117-1.016,1.117
					c-0.813-0.508-1.015-0.914-1.015-1.32c0.152-0.152,0.355-0.305,0.558-0.407c0-1.574-1.066-2.335-2.133-2.335
					c-1.371,0.66-1.473,1.422-1.066,3.25c-0.305,0-0.609,0.051-0.914,0.102c-0.153,0.203-0.254,0.457-0.356,0.711
					c-0.152,0.051-0.305,0.102-0.457,0.203c0,0.914,0,1.828,0,2.742c0.305,0.355,0.609,0.762,0.964,1.168
					c0,0.254,0,0.508,0.051,0.813c-0.203,0.305-0.406,0.609-0.559,0.914c-1.421,0.965-2.894,1.27-4.215,1.117
					c-1.218,0-1.421,0.559-2.132,0.965c-0.255,0.203-0.458,0.406-0.661,0.609c-0.66,1.32-1.98,2.641-3.148,3.859
					c-0.407-0.254-0.813-0.508-1.168-0.762c-0.458,0-0.914,0-1.321,0.051c-0.051,0.406-0.253,1.015-0.558,1.168
					c-0.661-0.863-1.321-0.711-1.777-0.66c-0.203,0.609-0.559,1.27-1.219,1.727c-1.524,0.66-2.082,2.945-3.504,3.808
					c-0.355,0.762-0.305,1.473-0.305,2.59c0.102,0.406-0.051,1.574-0.254,2.234c-0.102,0.051-0.203,0.102-0.254,0.152
					c-2.133,0-3.605-0.355-5.129-0.609c-0.559-0.305-1.117-0.559-1.625-0.813c-0.305-0.355-0.609-0.66-0.863-0.965
					c-0.559-0.152-1.118-0.253-1.676-0.355c0-0.508,0-1.016,0-1.523c0.762-1.016,1.625-2.336,1.625-3.605
					c-0.356-1.473-1.523-1.168-2.235-1.168c-0.254,0.102-0.457,0.254-0.66,0.406c-1.777,0.152-1.118,0.051-1.422,1.878
					c-0.355,0.356-0.406,0.457-0.507,0.965c-0.356,0.558-0.661,1.117-0.965,1.726c0,0.609,0.051,1.27,0.102,1.93
					c-0.203,0.254-0.407,0.508-0.609,0.762c-1.32,0.152-1.422,0.305-2.082,0.965c-0.914,0.152-1.777,0.355-2.641,0.559
					C246.72,351.314,246.618,351.873,245.959,352.178L245.959,352.178z"/>
				<path id="_138505192" fill="#D8ECE0" d="M303.542,342.784c-0.863-0.406-1.777-1.32-1.879-1.32
					c-0.762-1.168-0.457-2.488-0.863-2.895c-0.051-0.203-0.101-0.406-0.152-0.559c-1.523-1.422-1.98-1.523-3.605-1.016
					c-0.203,0.203-0.407,0.406-0.559,0.66c-0.813,0-1.625,0-2.387,0.051c0-0.965-0.203-1.676,0.812-1.828
					c0.356-0.305,0.711-0.559,1.067-0.813c0.609-1.218-0.305-1.777-0.305-2.336c0.71-0.406,1.727-1.016,2.336-1.625
					c0.152-0.863,0.05-1.066,0.914-1.066c0.254,0.254,0.508,0.508,0.813,0.762c0.558,0.051,1.167,0.102,1.777,0.152
					c-0.305,0.508-0.508,2.539,0.101,3.555c0.305,0.051,0.609,0.102,0.914,0.152c0.152,0.102,0.305,0.254,0.508,0.406
					c0,1.32-0.407,2.082,1.27,3.199c0.304,0.406,0.609,0.813,0.964,1.219c-1.269,0.609-1.269,0.406-1.828,1.371
					C303.441,341.463,303.491,342.124,303.542,342.784L303.542,342.784z"/>
				<path id="_138505864" fill="#FBE0D5" d="M319.537,339.737c-0.051-0.102-0.102-0.152-0.102-0.203
					c0.406-1.016,0.762-0.965,1.372-1.574c0.152-0.355,0.305-0.66,0.507-0.965c0-0.254,0-0.508,0-0.761
					c-0.355-0.204-0.711-0.407-1.016-0.609c-0.457-1.676,0.457-2.184,1.32-3.149c0.661-1.015,0.508-2.132,0.508-2.996
					c-0.66-0.66-1.27-1.32-1.879-1.98c-0.304-0.051-0.558-0.102-0.812-0.102c-0.559,0.102-1.117,0.203-1.676,0.305
					c-0.965,0.762-1.625,1.727-2.488,2.691c-0.609,0.965-1.117,1.98-1.878,2.742c-1.321-0.914-2.691-1.727-3.555-2.539
					c-1.016-0.102-1.473-0.559-1.727-0.813c0-1.066-0.102-1.168,0.813-1.371c0.355-0.457,0.711-0.914,1.117-1.32
					c-0.051-0.863-0.102-1.727-0.152-2.539c-0.102-0.051-0.152-0.102-0.204-0.102c-0.101-0.152-0.203-0.305-0.253-0.457
					c-0.152-0.355-0.305-0.71-0.406-1.015c0-0.711-0.051-1.27,0.355-1.676c0.559,0.152,0.762,0.508,1.067,1.422
					c0.66,0.609,0.914,1.32,2.438,0.965c0.254-0.305,0.559-0.609,0.863-0.863c1.523-0.965,3.351-2.641,4.824-3.656
					c0.559-0.66,1.067-1.625,1.321-2.184c1.32-0.406,1.828-0.964,3.25,0.102c0.305,0,0.66,0,1.016,0
					c0.253-0.305,0.508-0.609,0.762-0.914c0-0.813,0-1.625,0-2.387c0.051-0.254,0.152-0.508,0.254-0.762
					c0.559,0,1.32,0.406,2.031,1.473c0.457,0.355,0.66,0.813,1.777,0.813c0.254-0.254,0.355-0.863,0.355-1.016
					c0.152-0.203,0.305-0.355,0.457-0.508c0.102,0.102,0.254,0.203,0.407,0.355c0,0.609,0.051,1.219,0.101,1.879
					c0.813,0.812,1.473,1.879,2.742,3.148c0,0.812,0,1.625,0,2.437c0.203,0.254,0.407,0.508,0.66,0.813
					c0.508,0.406,1.066,0.812,1.625,1.218c0.406,0.254,0.813,0.508,1.219,0.762c0,0.559-2.945,2.488-3.301,2.691
					c-0.305,0.254-0.609,0.559-0.914,0.863c-0.508,0.559-1.016,1.117-1.473,1.727c-0.203,0.558-0.05,1.117-0.406,1.878
					c-0.508,0.204-1.016,0.407-1.473,0.661c-2.793,0.558-4.266,1.625-5.891,3.808c-0.153,0.254-0.254,0.508-0.355,0.813
					c-0.254,0.761-0.457,1.574-0.66,2.386C321.01,339.584,320.299,339.686,319.537,339.737L319.537,339.737z"/>
				<path id="_138497080" fill="#FFFEE2" d="M336.549,323.843c-0.711-0.863-2.184-1.625-2.641-1.98
					c-0.152-0.152-0.253-0.305-0.355-0.457c0-1.269,0.203-1.93-0.203-2.742c-0.914-0.661-0.914-0.914-1.117-1.372
					c-0.458-0.508-0.914-0.965-1.321-1.421c-0.051-0.051-0.102-0.051-0.152-0.051c-0.051-0.661-0.051-1.32-0.051-1.93
					c-0.559-0.711-0.863-0.609-1.219-0.609c-0.559,0.558-0.609,0.813-0.863,1.574c-0.102-0.05-0.204-0.05-0.254-0.05
					c-0.762-0.762-1.777-1.828-2.387-2.234c-2.54-0.305-2.59-1.118-2.895-2.844c-0.406-1.168-1.118-1.879-1.472-2.488
					c-0.051-0.254-0.102-0.508-0.153-0.762c-0.152-0.051-0.305-0.051-0.407-0.051c-0.507,0.406-1.015,0.863-1.522,1.32
					c-0.254,0.406-0.508,0.863-0.762,1.32c-1.015-0.762-0.813-1.98-1.219-2.387c-0.203-0.457-0.406-0.863-0.559-1.27
					c0-0.609,0-1.168,0-1.727c-0.813-1.066-1.625-1.675-2.336-2.285c-1.066,0-0.355-1.574-0.203-1.777
					c0.101-0.051,0.203-0.051,0.305-0.051c0.863,0.559,1.675,1.422,3.097,1.422c0.711-0.457,1.219-1.27,1.879-1.777
					c0.66-1.117,1.371-1.777,2.336-0.051c0.203,1.422,1.574,2.488,3.504,2.945c0.863-0.305,1.777-0.609,2.691-0.863
					c0.761-0.66,1.523-1.32,2.285-1.93c0.102,0.051,0.254,0.102,0.407,0.203c0,0.813-0.559,2.742,1.473,2.742
					c0.253-0.152,0.558-0.253,0.863-0.355c0.863-0.863,1.575,0.203,2.336,1.117c0.355,0.102,0.761,0.204,1.168,0.355
					c0.355,0.66,1.066,1.93,2.336,2.793c0.102,0,0.254,0,0.406,0c0.71-0.711,0.914-1.422,1.117-2.133
					c0.254,0.051,0.559,0.152,0.863,0.254c0.203,0.762,0.761,1.676,1.879,2.539c0,0.051,0,0.102,0,0.152
					c0.406,0.355,0.813,0.711,1.269,1.117c0.458-0.051,0.965-0.102,1.473-0.152c0.204-0.254,0.406-0.508,0.66-0.711
					c0.203,0,0.559-0.355,0.661-0.457c0-0.152,0-0.305,0-0.406c-0.153-0.051-0.254-0.102-0.356-0.152c0-0.66,1.371-0.863,1.98-1.066
					c0.152-0.102,0.305-0.203,0.508-0.254c0.101-0.152,0.203-0.305,0.355-0.457c0.355,0.152,0.204,0.965,1.32,1.523
					c0.559,0.406,1.168,0.813,1.777,1.219c0.508,0.051,1.015,0.152,1.523,0.254c0,0.508,0.305,2.031-0.457,2.59
					c-0.203,0.406-0.355,0.813-0.508,1.219c-0.102,0.559-0.203,1.117-0.305,1.676c-0.152,0-0.305,0.051-0.457,0.102
					c-0.204-0.965-1.27-0.355-1.321-0.305c-0.102-0.051-0.203-0.102-0.254-0.152c0-0.711,0-1.371,0-2.031
					c-0.965-1.371-1.625-0.762-2.285,0.305c-0.254,1.27-1.118,2.386-1.523,3.656c-0.203,0.203-0.356,0.457-0.508,0.711
					c-2.032,1.421-3.301-0.458-2.996,2.691c0.406,0.355,0.813,0.71,1.219,1.066c0,0.305-0.458,0.813-0.711,1.066
					c-1.016,0.305-2.945,0-3.504-0.254c-1.168-1.168-1.879-0.355-2.59,0.406c-0.355,1.016-0.711,2.031-1.066,3.047
					c-0.102,0.152-0.203,0.305-0.254,0.457C336.854,323.741,336.701,323.792,336.549,323.843L336.549,323.843z"/>
				<path id="_138492368" fill="#FBE0D5" d="M344.927,307.695c-0.66-0.661-1.321-1.27-1.929-1.879
					c-0.813-1.676-1.27-2.438-2.691-2.234c-0.305,0.66-0.609,1.32-0.914,1.98c-0.813,0-1.777-1.878-1.829-2.082
					c-0.305,0-0.355-0.457-0.457-0.609c-0.355-0.102-0.711-0.203-1.066-0.254c-1.015-1.625-1.574-1.422-2.742-1.523
					c-0.05,0.051-0.101,0.152-0.152,0.254c-2.082,1.016-1.676-0.965-1.625-1.98c-0.66-0.66-0.863-0.559-1.371-0.559
					c-0.305,0.305-0.609,0.66-0.914,1.016c-0.203,0.101-0.406,0.203-0.61,0.355c-0.66,0.914-2.539,1.219-3.402,1.32
					c-1.828-0.762-2.387-1.27-2.691-2.641c-1.016-1.523-0.812-1.066-2.133-1.219c-0.051,0-0.101,0.051-0.152,0.102
					c-0.559-0.254-0.711-0.609-0.711-0.965c0.458-0.253,1.117-0.203,1.777-0.711c0-0.813-0.152-1.27-0.254-1.676
					c-0.152-0.253-0.305-0.457-0.406-0.66c-1.168,0-1.066,0.152-1.574,1.168c-0.965,0-1.523-0.762-2.082-0.965
					c-0.204-0.812-0.305-0.762-0.66-1.218c-0.051-0.407-0.051-0.813-0.051-1.219c0.965-0.711,1.422-1.371,1.98-2.234
					c0.204-1.727,1.523-2.488,2.031-3.809c0-0.355,0-0.66,0.051-0.965c0.355,0,0.508,0.305,0.609,0.559
					c0,0.609-0.457,1.574,0.66,2.133c0.508,0,1.219,0.102,1.777-0.457c0-1.117,0.152-2.641-0.051-3.352
					c-1.32-1.32-0.863-2.082-0.254-3.148c0-1.168-0.66-2.539-0.965-2.691c-0.051-0.407-0.101-0.813-0.152-1.219
					c0.203-0.458,0.406-0.915,0.61-1.32c0-0.914,0.406-1.625,0.66-2.488c0-1.98-1.067-4.723-2.387-5.383
					c-1.27,0-1.879,0.051-2.54,0.711c-0.761,1.32-0.812,1.473-2.183,1.777c-1.27,0-2.184,0.508-3.149,0.66
					c-1.117-0.559-0.964-1.32-1.167-1.879c-0.203-1.422-0.661-2.183-1.219-2.742c-2.437-1.016-2.843-0.762-2.843,1.422
					c-0.711-0.559-1.422-1.066-2.082-1.574c-0.051-0.102-0.051-0.203-0.051-0.305c0.305-0.355,0.609-0.711,0.965-1.066
					c0.051-0.609,0.152-1.219,0.254-1.777c-0.254-0.204-0.508-0.407-0.711-0.609c1.016-0.609,2.032-1.168,3.047-1.727
					c1.066-0.406,1.828-0.66,3.402-0.355c0.813,0.609,1.523,0.762,2.945,0.863c1.422-0.406,2.031-0.458,3.757,0.305
					c1.27,1.421,2.691,3.402,4.418,5.281c0.305,0.762,0.609,1.523,0.965,2.336c0.659,0.609,1.32,1.219,2.031,1.828
					c0.813,1.016,0.964,1.066,1.117,2.742c0.203,0.305,0.914,0.711,1.625,1.27c0.051,0.102,0.153,0.254,0.254,0.406
					c0,0.558,0,0.914,0.355,1.98c0.305,0.203,2.184,0.254,3.149-0.051c0.812,0,0.964-0.102,2.183,0.609c0.355,0,0.711,0,1.117,0
					c0.355-0.355,0.305-0.355,1.219-0.355c0.66,0.559,1.32,1.168,1.981,1.777c0.659,0,1.625-0.101,2.386,0.66
					c0.254,0.609,0.508,1.219,0.813,1.828c0.254,1.168,1.371,4.215,3.656,2.844c0.965-0.152,2.031-0.508,3.25-0.914
					c0.204-0.203,0.458-0.406,0.711-0.559c0.915-1.625,1.625-2.285,3.047-3.453c0.406-0.457,0.812-0.914,1.218-1.32
					c0.762-0.66,1.524-1.32,2.336-1.98c1.219,0.203,1.27,0,0.914,1.625c0,0.66,0,1.371,0,2.082c0.356,0.406,1.27,1.016,1.523,2.133
					c-0.051,0.66-0.101,1.32-0.152,2.031c-0.204,0.406-0.355,0.813-0.508,1.27c-0.559,0.559-0.457,1.676-0.203,2.844
					c-0.051,1.066-0.051,2.133-0.051,3.199c-0.152,0.609-0.305,1.27-0.457,1.93c0,0.66,0.051,1.371,0.101,2.082
					c-0.304,0.305-0.559,0.66-0.964,0.863c-0.406,0-0.762,0.051-1.117,0.102c-1.321-0.406-1.829-0.355-2.641-0.406
					c-0.458,0.457-0.458,0.863-0.813,1.32c-1.422,0.355-1.625,0.863-1.473,2.335c0.254,0.406,0.508,0.813,0.813,1.219
					c0.203,1.219,0.812,2.742,1.727,4.367c0.152,0.66,0.305,1.32,0.457,1.98c-1.727,0-2.691-1.32-3.402-1.675
					c0-1.066-1.067-1.32-1.422-0.965c-0.051,0.102-0.051,0.204-0.051,0.356c-1.117,0.152-1.879,0.762-2.742,1.168
					c0,0.305,0,0.609,0,0.914c0.051,0.051,0.102,0.101,0.152,0.152c-0.508,0.253-0.66,0.457-0.965,0.762
					C345.537,307.492,345.232,307.593,344.927,307.695z"/>
				<path id="_138475496" fill="#FFFEE2" d="M261.192,366.346c-1.596-1.231-2.742-1.151-4.062-1.086
					c-0.271,0.124-0.62,0.234-1.067,0.324c-1.066,1.574-0.508,3.403,0.406,5.383c0.051,0.812,0.203,1.625-0.102,2.742
					c-0.813,0-1.625,0-2.438,0c-0.813,0.407-0.508,0.355-0.66,1.371c0.305,0.204,0.66,0.457,1.015,0.711c0,0.254,0,0.508,0,0.761
					c-0.203,0.458-0.355,0.965-0.508,1.473c-1.219,0-1.523,0.56-2.336,0.813c-0.914,0-1.828,0.05-2.742,0.102
					c-0.102-0.052-0.203-0.102-0.254-0.102c-0.457-0.711-0.965-1.066-1.219-1.066c-0.101-0.254-0.203-0.508-0.305-0.762
					c-0.355-0.761-0.71-1.473-1.066-2.184c-0.407-0.304-0.813-0.609-1.168-0.914c-0.609-0.965-1.625-1.32-2.133-1.473
					c-0.355-0.204-0.66-0.406-0.965-0.609c-1.219-2.488-1.726-2.286-3.605-1.117c-0.71,0.711-0.761,0.508-0.761,1.777
					c0.254,0.355,0.559,0.863,0.559,1.778c-0.406,0.254-0.609,0.508-1.219,0.711c-0.254,0-0.508,0-0.762,0.051
					c-1.625-0.914-3.047-1.98-3.859-2.996c-1.066-0.508-1.016-2.437-1.016-2.844c0.66,0,1.32,0,2.032,0.052
					c0.508,0.355,1.066,0.71,1.625,1.066c0.813,0,1.625,0.305,2.336-0.609c0-0.254,0-0.508,0-0.762
					c-0.71-0.66-1.473-1.32-1.625-1.676c1.066-0.66,2.995-2.691,3.3-3.91c0.458-0.203,1.016-0.457,1.321-0.762
					c0.254,0,0.66-0.559,0.914-0.812c-0.051-0.661-0.102-1.32-0.102-1.981c-1.117-1.117-0.661-2.64-0.863-2.844
					c-0.355-0.812-0.711-1.625-1.015-2.386c-0.102-0.559-0.204-1.117-0.305-1.625c-0.407-0.914-1.067-2.336-1.321-2.438
					c-0.761,0-1.523,0-2.285,0c-1.421-0.457-2.894-1.828-3.656-2.184c-0.761-0.965-1.523-1.878-2.285-2.793
					c-0.813,0-0.914,0.152-1.422,0.305c-0.407-0.051-0.813-0.051-1.219-0.051c-0.762-0.66-1.523-1.269-2.234-1.878
					c-0.711-0.305-1.372-0.61-2.032-0.915c-1.269-0.051-2.335-0.355-3.046-0.558c-1.575-1.219-2.031-0.914-3.454-0.965
					c-0.305,0.153-0.609,0.356-0.863,0.559c0,0.762,0.458,1.371,0.204,2.539c-1.372,1.371-3.961-1.066-4.571-1.777
					c-0.66-0.508-1.32-1.016-1.98-1.523c-1.371-0.762-2.539-1.473-3.555-1.777c-1.98,0-4.164,0.254-5.688-0.508
					c-0.203-0.051-0.355-0.051-0.508-0.051c-0.051-0.762-0.406-2.133-0.558-2.285c-0.203-1.117-0.863-1.98,0.152-2.285
					c0.305-0.508,0.609-0.965,0.762-1.523c1.117,0,2.945,0,3.96-1.016c0.152-0.457,0.305-0.863,0.508-1.27
					c0.355-0.406,0.71-0.813,1.066-1.168c0.965-2.488,1.879-2.336,4.672-2.641c0.355,0,2.996,0.203,3.757-0.559
					c-0.152-0.762-0.304-1.523-0.406-2.234c0-1.371,0.051-3.707,1.878-2.792c1.372,0.152,2.793,0.355,4.215,0.559
					c-0.203,0.457-0.152,1.27-0.102,2.082c0.457,0.661,0.864,1.118,1.219,2.234c0,0.406,0,0.813,0,1.219
					c-0.254,0.66-0.71,1.372-0.559,2.387c0.711,0.66,1.422,1.32,2.133,2.031c0.102,0.203,0.203,0.406,0.355,0.609
					c-0.051,0.66-0.051,1.32-0.051,2.031c0.152,0.152,0.762,0.203,1.473,0.203c1.422-1.117,3.859-1.422,6.093-1.422
					c0.051,0.254,0.153,0.508,0.254,0.813c-0.254,0.457-0.457,0.965-0.66,1.473c-1.067,1.219-2.336,1.117-2.082,2.996
					c0.457,0.152,0.965,0.355,1.473,0.559c0.66,0.863,1.117,1.371,2.387,2.133c0.457,0.457,0.609,1.929,1.625,2.335
					c0.458,0.609,0.965,1.219,1.473,1.879c0.355,0.152,2.184,1.117,2.742,0c0.152-2.184-0.305-2.489,1.574-2.793
					c0.813,0,1.372-0.254,2.336,0.711c0.254,0,0.508,0,0.813,0.05c0.863-0.406,1.727-1.168,2.437-1.523
					c0.458-0.457,0.914-0.406,1.828-0.508c0.204,0.305,0.458,0.609,0.711,0.965c0,1.016-1.575,2.132-2.387,2.691
					c-0.965,1.219-1.066,1.93-1.066,3.809c0.356,0.711,0.71,1.422,1.117,2.133c0.508,0.609,1.32,1.828,2.691,1.828
					c0.051-0.102,0.101-0.152,0.152-0.203c0.203,0,0.407,0,0.609,0c0.711,0.203,2.743,2.285,3.555,3.555
					c0.203,1.066,0.508,2.387,0.609,4.062c0.102,0.457,0.203,0.965,0.355,1.473c0.863,1.117,0.995,0.799,2.569,2.069
					c0.188,0,1.327-0.561,2.03-0.831c0.033-0.625,0.261-0.663,1.545-0.984c1.168-1.168,0.457-2.489-0.254-3.2
					c-1.625-0.406-1.372-0.66-1.27-1.828c0.305-0.457,0.609-0.914,0.965-1.371c0-0.508,0-1.016,0-1.523
					c0.305-0.305,0.71-0.152,1.117-0.203c0.507-0.508,0.762-0.762,1.32-1.016c0,0.254,0.203,0.965-0.355,1.523
					c-0.051,0.305-0.051,0.66-0.051,1.015c0.457,0.711,2.133,0.965,3.301,1.32c0.812,0.508,1.625,1.066,2.437,1.625
					c0.254,0,0.508,0,0.762,0c-0.253,0.457-0.457,0.965-0.66,1.473c0.102,0.964,0.203,1.929,0.305,2.894
					c-0.152,0.457-0.305,0.914-0.406,1.371c-0.304,0-0.609,0-0.863-0.254c-1.219-0.203-1.98-0.203-2.59,0.711c0,0.609,0,1.27,0,1.93
					C261.496,366.245,261.344,366.295,261.192,366.346L261.192,366.346z"/>
			</g>
		</g>
	</g>
</g>
</svg>
